<?xml version="1.0" encoding="UTF-8"?>
<feed xmlns="http://www.w3.org/2005/Atom">
	<title>1337x RSS - The Matrix</title>
	<id>https://besto.me/</id>
	<link rel="alternate" href="https://besto.me/about-me/"/>
	<link href="https://gist.githubusercontent.com/Bestulo/a3813880eeb77513360ed23a7a2c3950/raw/30622c8b7064fafc6668902fb7930a4c039a0409/1337x-matrix-rss.xml" rel="self"/>

	<updated>2022-10-26T15:37:33.362Z</updated>
	<author>
		<name>Besto's Magic 1337x RSS Hub</name>
	</author>
		<entry>
			<title>The.Matrix.4.Resurrections.2021.1080p.WEBRip.x264</title>
			<link rel="alternate" type="text/html" href="http://1337x.to/torrent/5093050/The-Matrix-4-Resurrections-2021-1080p-WEBRip-x264/"/>
			<id>http://1337x.to/torrent/5093050/The-Matrix-4-Resurrections-2021-1080p-WEBRip-x264/</id>
			<published>2021-12-21T23:00:00.000Z</published>
			<updated>2021-12-21T23:00:00.000Z</updated>
			<category term="Movies"/>
			<content type="html"><![CDATA[<p></p><p class="align-center">Screens... (click to enlarge):<br><a target="_blank" href="https://checkmy.pictures/image/gBH3p"><img src="/images/profile-load.svg" data-original="https://checkmy.pictures/images/2021/12/22/02720011827504219927.th.jpg" class="img-responsive descrimg lazy"></a><br><a target="_blank" href="https://checkmy.pictures/image/gBx2d"><img src="/images/profile-load.svg" data-original="https://checkmy.pictures/images/2021/12/22/12103797858041152696.th.jpg" class="img-responsive descrimg lazy"></a><br><a target="_blank" href="https://checkmy.pictures/image/gB4bG"><img src="/images/profile-load.svg" data-original="https://checkmy.pictures/images/2021/12/22/98716710378030482897.th.jpg" class="img-responsive descrimg lazy"></a><br></p><p><br><br> <br> <br><br>Infolink -&gt; <a target="_blank" href="https://www.imdb.com/title/tt10838180/">https://www.imdb.com/title/tt10838180/</a><br><br>Mediainfo<br></p><div class="torrent-work"><div class="torrent-work-heading"><h2>Quote:</h2></div><div class="torrent-work-detail no-top-radius"><span class="icon-left"><i class="flaticon-quote-right"></i></span>Video<br>ID : 1<br>Format : AVC<br>Format/Info : Advanced Video Codec<br>Format profile : <a href="/cdn-cgi/l/email-protection" class="__cf_email__" data-cfemail="4b03222c230b077f657a">[email&nbsp;protected]</a><br>Format settings : CABAC / 4 Ref Frames<br>Format settings, CABAC : Yes<br>Format settings, Reference frames : 4 frames<br>Codec ID : avc1<br>Codec ID/Info : Advanced Video Coding<br>Duration : 2 h 27 min<br>Bit rate : 2 500 kb/s<br>Width : 1 920 pixels<br>Height : 804 pixels<br>Display aspect ratio : 2.40:1<br>Frame rate mode : Constant<br>Frame rate : 23.976 (23976/1000) FPS<br>Color space : YUV<br>Chroma subsampling : 4:2:0<br>Bit depth : 8 bits<br>Scan type : Progressive<br>Bits/(Pixel*Frame) : 0.068<br>Stream size : 2.58 GiB (92%)<br>Writing library : x264 core 152 r2851M ba24899<br>Encoding settings : cabac=1 / ref=4 / deblock=1:-1:-1 / analyse=0x3:0x113 / me=umh / subme=9 / psy=1 / psy_rd=1.00:0.15 / mixed_ref=1 / me_range=24 / chroma_me=1 / trellis=2 / 8x8dct=1 / cqm=0 / deadzone=21,11 / fast_pskip=1 / chroma_qp_offset=-3 / threads=16 / lookahead_threads=4 / sliced_threads=0 / nr=0 / decimate=1 / interlaced=0 / bluray_compat=0 / constrained_intra=0 / bframes=3 / b_pyramid=2 / b_adapt=2 / b_bias=0 / direct=3 / weightb=1 / open_gop=0 / weightp=2 / keyint=250 / keyint_min=25 / scenecut=40 / intra_refresh=0 / rc_lookahead=50 / rc=2pass / mbtree=1 / bitrate=2500 / ratetol=1.0 / qcomp=0.60 / qpmin=0 / qpmax=69 / qpstep=4 / cplxblur=20.0 / qblur=0.5 / vbv_maxrate=31250 / vbv_bufsize=31250 / nal_hrd=none / filler=0 / ip_ratio=1.40 / aq=3:1.00<br>Encoded date : UTC 2021-12-22 09:33:21<br>Tagged date : UTC 2021-12-22 09:33:21<br>Codec configuration box : avcC<br><br>Audio<br>ID : 2<br>Format : AAC LC<br>Format/Info : Advanced Audio Codec Low Complexity<br>Codec ID : mp4a-40-2<br>Duration : 2 h 27 min<br>Bit rate mode : Constant<br>Bit rate : 224 kb/s<br>Channel(s) : 6 channels<br>Channel layout : C L R Ls Rs LFE<br>Sampling rate : 48.0 kHz<br>Frame rate : 46.875 FPS (1024 SPF)<br>Compression mode : Lossy<br>Stream size : 237 MiB (8%)<br>Language : English<br>Default : Yes<br>Alternate group : 1<br>Encoded date : UTC 2021-12-22 09:33:21<br>Tagged date : UTC 2021-12-22 09:33:21<span class="icon-right"><i class="flaticon-quote-left"></i></span></div></div><p></p>]]></content>
		</entry>
		<entry>
			<title>The.Matrix.4.Resurrections.2021.1080p.WEB.H264-NAISU</title>
			<link rel="alternate" type="text/html" href="http://1337x.to/torrent/5092987/The-Matrix-4-Resurrections-2021-1080p-WEB-H264-NAISU/"/>
			<id>http://1337x.to/torrent/5092987/The-Matrix-4-Resurrections-2021-1080p-WEB-H264-NAISU/</id>
			<published>2021-12-21T23:00:00.000Z</published>
			<updated>2021-12-21T23:00:00.000Z</updated>
			<category term="Movies"/>
			<content type="html"><![CDATA[<p></p><p class="align-center">Screens... (click to enlarge):<br><a target="_blank" href="https://checkmy.pictures/image/gBWJb"><img src="/images/profile-load.svg" data-original="https://checkmy.pictures/images/2021/12/22/63600857300150662164.th.jpg" class="img-responsive descrimg lazy"></a><br><a target="_blank" href="https://checkmy.pictures/image/gBclg"><img src="/images/profile-load.svg" data-original="https://checkmy.pictures/images/2021/12/22/75649639502563044353.th.jpg" class="img-responsive descrimg lazy"></a><br><a target="_blank" href="https://checkmy.pictures/image/gBrs6"><img src="/images/profile-load.svg" data-original="https://checkmy.pictures/images/2021/12/22/83306591860498429498.th.jpg" class="img-responsive descrimg lazy"></a><br></p><p><br><br> <br> <br><br>Infolink -&gt; <a target="_blank" href="https://www.imdb.com/title/tt10838180/">https://www.imdb.com/title/tt10838180/</a><br><br>Mediainfo<br></p><div class="torrent-work"><div class="torrent-work-heading"><h2>Quote:</h2></div><div class="torrent-work-detail no-top-radius"><span class="icon-left"><i class="flaticon-quote-right"></i></span>Video<br>ID : 1<br>Format : AVC<br>Format/Info : Advanced Video Codec<br>Format profile : <a href="/cdn-cgi/l/email-protection" class="__cf_email__" data-cfemail="4800212f2008047c">[email&nbsp;protected]</a><br>Format settings : CABAC / 4 Ref Frames<br>Format settings, CABAC : Yes<br>Format settings, Reference frames : 4 frames<br>Codec ID : V_MPEG4/ISO/AVC<br>Duration : 2 h 27 min<br>Bit rate mode : Variable<br>Bit rate : 8 250 kb/s<br>Maximum bit rate : 12.4 Mb/s<br>Width : 1 920 pixels<br>Height : 816 pixels<br>Display aspect ratio : 2.35:1<br>Frame rate mode : Constant<br>Frame rate : 23.976 (24000/1001) FPS<br>Color space : YUV<br>Chroma subsampling : 4:2:0<br>Bit depth : 8 bits<br>Scan type : Progressive<br>Bits/(Pixel*Frame) : 0.220<br>Stream size : 8.30 GiB (89%)<br>Writing library : x264 core 157 r2965 861cec4<br>Encoding settings : cabac=1 / ref=4 / deblock=1:0:0 / analyse=0x3:0x113 / me=hex / subme=7 / psy=1 / psy_rd=1.00:0.00 / mixed_ref=1 / me_range=16 / chroma_me=1 / trellis=1 / 8x8dct=1 / cqm=0 / deadzone=21,11 / fast_pskip=1 / chroma_qp_offset=-2 / threads=25 / lookahead_threads=4 / sliced_threads=0 / nr=0 / decimate=1 / interlaced=0 / bluray_compat=0 / constrained_intra=0 / bframes=3 / b_pyramid=2 / b_adapt=1 / b_bias=0 / direct=1 / weightb=1 / open_gop=0 / weightp=2 / keyint=96 / keyint_min=96 / scenecut=40 / intra_refresh=0 / rc_lookahead=40 / rc=2pass / mbtree=1 / bitrate=8250 / ratetol=1.0 / qcomp=0.60 / qpmin=0 / qpmax=69 / qpstep=4 / cplxblur=20.0 / qblur=0.5 / vbv_maxrate=12375 / vbv_bufsize=6187 / nal_hrd=vbr / filler=0 / ip_ratio=1.40 / aq=1:1.00<br>Default : Yes<br>Forced : No<br>Color range : Limited<br>Color primaries : BT.709<br>Transfer characteristics : BT.709<br>Matrix coefficients : BT.709<br><br>Audio<br>ID : 2<br>Format : E-AC-3 JOC<br>Format/Info : Enhanced AC-3 with Joint Object Coding<br>Commercial name : Dolby Digital Plus with Dolby Atmos<br>Codec ID : A_EAC3<br>Duration : 2 h 27 min<br>Bit rate mode : Constant<br>Bit rate : 768 kb/s<br>Channel(s) : 6 channels<br>Channel layout : L R C LFE Ls Rs<br>Sampling rate : 48.0 kHz<br>Frame rate : 31.250 FPS (1536 SPF)<br>Compression mode : Lossy<br>Stream size : 813 MiB (9%)<br>Language : English<br>Service kind : Complete Main<br>Default : Yes<br>Forced : No<br>Complexity index : 16<br>Number of dynamic objects : 15<br>Bed channel count : 1 channel<br>Bed channel configuration : LFE<br><br>Text #1<br>ID : 3<br>Format : UTF-8<br>Codec ID : S_TEXT/UTF8<br>Codec ID/Info : UTF-8 Plain Text<br>Title : English<br>Language : English<br>Default : No<br>Forced : No<br><br>Text #2<br>ID : 4<br>Format : UTF-8<br>Codec ID : S_TEXT/UTF8<br>Codec ID/Info : UTF-8 Plain Text<br>Title : Latin America Spanish<br>Language : Spanish<br>Default : No<br>Forced : No<span class="icon-right"><i class="flaticon-quote-left"></i></span></div></div><p></p>]]></content>
		</entry>
		<entry>
			<title>The.Matrix.4.Resurrections.2021.1080p.WEBRip.x265</title>
			<link rel="alternate" type="text/html" href="http://1337x.to/torrent/5093208/The-Matrix-4-Resurrections-2021-1080p-WEBRip-x265/"/>
			<id>http://1337x.to/torrent/5093208/The-Matrix-4-Resurrections-2021-1080p-WEBRip-x265/</id>
			<published>2021-12-21T23:00:00.000Z</published>
			<updated>2021-12-21T23:00:00.000Z</updated>
			<category term="Movies"/>
			<content type="html"><![CDATA[<p></p><p class="align-center">Screens... (click to enlarge):<br><a target="_blank" href="https://checkmy.pictures/image/gg9Kb"><img src="/images/profile-load.svg" data-original="https://checkmy.pictures/images/2021/12/22/53665175676427951070.th.jpg" class="img-responsive descrimg lazy"></a><br><a target="_blank" href="https://checkmy.pictures/image/ggDmg"><img src="/images/profile-load.svg" data-original="https://checkmy.pictures/images/2021/12/22/55856033466023785664.th.jpg" class="img-responsive descrimg lazy"></a><br><a target="_blank" href="https://checkmy.pictures/image/ggJX6"><img src="/images/profile-load.svg" data-original="https://checkmy.pictures/images/2021/12/22/91874823530695183124.th.jpg" class="img-responsive descrimg lazy"></a><br></p><p><br><br> <br> <br><br>Infolink -&gt; <a target="_blank" href="https://www.imdb.com/title/tt10838180/">https://www.imdb.com/title/tt10838180/</a><br><br>Mediainfo<br></p><div class="torrent-work"><div class="torrent-work-heading"><h2>Quote:</h2></div><div class="torrent-work-detail no-top-radius"><span class="icon-left"><i class="flaticon-quote-right"></i></span>Video<br>ID : 1<br>Format : HEVC<br>Format/Info : High Efficiency Video Coding<br>Format profile : Main <a href="/cdn-cgi/l/email-protection" class="__cf_email__" data-cfemail="be8f8efef28a">[email&nbsp;protected]</a>@Main<br>Codec ID : hev1<br>Codec ID/Info : High Efficiency Video Coding<br>Duration : 2 h 27 min<br>Bit rate : 2 001 kb/s<br>Width : 1 920 pixels<br>Height : 804 pixels<br>Display aspect ratio : 2.40:1<br>Frame rate mode : Constant<br>Frame rate : 23.976 (24000/1001) FPS<br>Color space : YUV<br>Chroma subsampling : 4:2:0<br>Bit depth : 10 bits<br>Bits/(Pixel*Frame) : 0.054<br>Stream size : 2.07 GiB (90%)<br>Writing library : x265 3.3+4-rarbg-30eb4de83092:[Linux][GCC 8.3.1][64 bit] 10bit<br>Encoding settings : cpuid=1111039 / frame-threads=4 / wpp / no-pmode / no-pme / no-psnr / no-ssim / log-level=2 / input-csp=1 / input-res=1920x804 / interlace=0 / total-frames=0 / level-idc=0 / high-tier=1 / uhd-bd=0 / ref=4 / no-allow-non-conformance / no-repeat-headers / annexb / no-aud / no-hrd / info / hash=0 / no-temporal-layers / open-gop / min-keyint=23 / keyint=250 / gop-lookahead=0 / bframes=4 / b-adapt=2 / b-pyramid / bframe-bias=0 / rc-lookahead=25 / lookahead-slices=4 / scenecut=40 / hist-scenecut=0 / radl=0 / no-splice / no-intra-refresh / ctu=64 / min-cu-size=8 / rect / no-amp / max-tu-size=32 / tu-inter-depth=1 / tu-intra-depth=1 / limit-tu=0 / rdoq-level=2 / dynamic-rd=0.00 / no-ssim-rd / signhide / no-tskip / nr-intra=0 / nr-inter=0 / no-constrained-intra / strong-intra-smoothing / max-merge=3 / limit-refs=3 / limit-modes / me=3 / subme=3 / merange=57 / temporal-mvp / no-frame-dup / no-hme / weightp / no-weightb / no-analyze-src-pics / deblock=0:0 / no-sao / no-sao-non-deblock / rd=4 / selective-sao=0 / no-early-skip / rskip / no-fast-intra / no-tskip-fast / no-cu-lossless / no-b-intra / no-splitrd-skip / rdpenalty=0 / psy-rd=2.00 / psy-rdoq=1.00 / no-rd-refine / no-lossless / cbqpoffs=0 / crqpoffs=0 / rc=abr / bitrate=2000 / qcomp=0.60 / qpstep=4 / stats-write=0 / stats-read=2 / cplxblur=20.0 / qblur=0.5 / ipratio=1.40 / pbratio=1.30 / aq-mode=3 / aq-strength=1.00 / cutree / zone-count=0 / no-strict-cbr / qg-size=32 / no-rc-grain / qpmax=69 / qpmin=0 / no-const-vbv / sar=1 / overscan=0 / videoformat=5 / range=0 / colorprim=2 / transfer=2 / colormatrix=2 / chromaloc=0 / display-window=0 / cll=0,0 / min-luma=0 / max-luma=1023 / log2-max-poc-lsb=8 / vui-timing-info / vui-hrd-info / slices=1 / no-opt-qp-pps / no-opt-ref-list-length-pps / no-multi-pass-opt-rps / scenecut-bias=0.05 / hist-threshold=0.01 / no-opt-cu-delta-qp / no-aq-motion / no-hdr10 / no-hdr10-opt / no-dhdr10-opt / no-idr-recovery-sei / analysis-reuse-level=0 / analysis-save-reuse-level=0 / analysis-load-reuse-level=0 / scale-factor=0 / refine-intra=0 / refine-inter=0 / refine-mv=1 / refine-ctu-distortion=0 / no-limit-sao / ctu-info=0 / no-lowpass-dct / refine-analysis-type=0 / copy-pic=1 / max-ausize-factor=1.0 / no-dynamic-refine / no-single-sei / no-hevc-aq / no-svt / no-field / qp-adaptation-range=1.00 / no-scenecut-aware-qpconformance-window-offsets / right=0 / bottom=0<br>Encoded date : UTC 2021-12-22 14:13:50<br>Tagged date : UTC 2021-12-22 14:13:50<br>Codec configuration box : hvcC<br><br>Audio<br>ID : 2<br>Format : AAC LC<br>Format/Info : Advanced Audio Codec Low Complexity<br>Codec ID : mp4a-40-2<br>Duration : 2 h 27 min<br>Bit rate mode : Constant<br>Bit rate : 224 kb/s<br>Channel(s) : 6 channels<br>Channel layout : C L R Ls Rs LFE<br>Sampling rate : 48.0 kHz<br>Frame rate : 46.875 FPS (1024 SPF)<br>Compression mode : Lossy<br>Stream size : 237 MiB (10%)<br>Language : English<br>Default : Yes<br>Alternate group : 1<br>Encoded date : UTC 2021-12-22 14:13:50<br>Tagged date : UTC 2021-12-22 14:13:50<span class="icon-right"><i class="flaticon-quote-left"></i></span></div></div><p></p>]]></content>
		</entry>
		<entry>
			<title>The.Matrix.4.Resurrections.2021.WEBRip.x264-ION10</title>
			<link rel="alternate" type="text/html" href="http://1337x.to/torrent/5093020/The-Matrix-4-Resurrections-2021-WEBRip-x264-ION10/"/>
			<id>http://1337x.to/torrent/5093020/The-Matrix-4-Resurrections-2021-WEBRip-x264-ION10/</id>
			<published>2021-12-21T23:00:00.000Z</published>
			<updated>2021-12-21T23:00:00.000Z</updated>
			<category term="Movies"/>
			<content type="html"><![CDATA[<p></p><p class="align-center">Screens... (click to enlarge):<br><a target="_blank" href="https://checkmy.pictures/image/gBD7s"><img src="/images/profile-load.svg" data-original="https://checkmy.pictures/images/2021/12/22/58747279629562127861.th.jpg" class="img-responsive descrimg lazy"></a><br><a target="_blank" href="https://checkmy.pictures/image/gBJCX"><img src="/images/profile-load.svg" data-original="https://checkmy.pictures/images/2021/12/22/61067406950999449290.th.jpg" class="img-responsive descrimg lazy"></a><br><a target="_blank" href="https://checkmy.pictures/image/gBLdI"><img src="/images/profile-load.svg" data-original="https://checkmy.pictures/images/2021/12/22/83959519690449442088.th.jpg" class="img-responsive descrimg lazy"></a><br></p><p><br><br> <br> <br> <br> <br> <br><br>Infolink -&gt; <a target="_blank" href="https://www.imdb.com/title/tt10838180/">https://www.imdb.com/title/tt10838180/</a><br><br>Mediainfo<br></p><div class="torrent-work"><div class="torrent-work-heading"><h2>Quote:</h2></div><div class="torrent-work-detail no-top-radius"><span class="icon-left"><i class="flaticon-quote-right"></i></span>Video<br>ID : 1<br>Format : AVC<br>Format/Info : Advanced Video Codec<br>Format profile : <a href="/cdn-cgi/l/email-protection" class="__cf_email__" data-cfemail="f1b9989699b1bdc2dfc0">[email&nbsp;protected]</a><br>Format settings : CABAC / 5 Ref Frames<br>Format settings, CABAC : Yes<br>Format settings, Reference frames : 5 frames<br>Codec ID : avc1<br>Codec ID/Info : Advanced Video Coding<br>Duration : 2 h 27 min<br>Bit rate : 1 100 kb/s<br>Width : 720 pixels<br>Height : 302 pixels<br>Display aspect ratio : 2.40:1<br>Original display aspect ratio : 2.40:1<br>Frame rate mode : Constant<br>Frame rate : 23.976 (24000/1001) FPS<br>Color space : YUV<br>Chroma subsampling : 4:2:0<br>Bit depth : 8 bits<br>Scan type : Progressive<br>Bits/(Pixel*Frame) : 0.211<br>Stream size : 1.14 GiB (81%)<br>Title : RARBG - The.Matrix.4.Resurrections.2021.WEBRip.x264-ION10<br>Writing library : x264 core 152 r2851M ba24899<br>Encoding settings : cabac=1 / ref=5 / deblock=1:-1:-1 / analyse=0x3:0x113 / me=umh / subme=9 / psy=1 / psy_rd=1.00:0.15 / mixed_ref=1 / me_range=16 / chroma_me=1 / trellis=2 / 8x8dct=1 / cqm=0 / deadzone=21,11 / fast_pskip=1 / chroma_qp_offset=-3 / threads=16 / lookahead_threads=1 / sliced_threads=0 / nr=0 / decimate=1 / interlaced=0 / bluray_compat=0 / constrained_intra=0 / bframes=3 / b_pyramid=2 / b_adapt=2 / b_bias=0 / direct=3 / weightb=1 / open_gop=0 / weightp=2 / keyint=250 / keyint_min=23 / scenecut=40 / intra_refresh=0 / rc_lookahead=50 / rc=2pass / mbtree=1 / bitrate=1100 / ratetol=1.0 / qcomp=0.60 / qpmin=0 / qpmax=69 / qpstep=4 / cplxblur=20.0 / qblur=0.5 / ip_ratio=1.40 / aq=1:1.00<br>Encoded date : UTC 2021-12-22 08:15:55<br>Tagged date : UTC 2021-12-22 08:15:55<br>Codec configuration box : avcC<br><br>Audio<br>ID : 2<br>Format : AAC LC<br>Format/Info : Advanced Audio Codec Low Complexity<br>Codec ID : mp4a-40-2<br>Duration : 2 h 27 min<br>Bit rate mode : Constant<br>Bit rate : 256 kb/s<br>Channel(s) : 2 channels<br>Channel layout : L R<br>Sampling rate : 48.0 kHz<br>Frame rate : 46.875 FPS (1024 SPF)<br>Compression mode : Lossy<br>Stream size : 271 MiB (19%)<br>Title : RARBG - The.Matrix.4.Resurrections.2021.WEBRip.x264-ION10<br>Language : English<br>Default : Yes<br>Alternate group : 1<br>Encoded date : UTC 2021-12-22 08:15:55<br>Tagged date : UTC 2021-12-22 08:15:55<span class="icon-right"><i class="flaticon-quote-left"></i></span></div></div><p></p>]]></content>
		</entry>
		<entry>
			<title>The.Matrix.Resurrections.2021.HDRip.XviD.AC3-EVO</title>
			<link rel="alternate" type="text/html" href="http://1337x.to/torrent/5093024/The-Matrix-Resurrections-2021-HDRip-XviD-AC3-EVO/"/>
			<id>http://1337x.to/torrent/5093024/The-Matrix-Resurrections-2021-HDRip-XviD-AC3-EVO/</id>
			<published>2021-12-21T23:00:00.000Z</published>
			<updated>2021-12-21T23:00:00.000Z</updated>
			<category term="Movies"/>
			<content type="html"><![CDATA[<p><a target="_blank" href="https://orangepix.is/image/lrSHM"><img src="/images/profile-load.svg" data-original="https://orangepix.is/images/2021/12/22/3f9cf617fe79eaf19a99f342d26a818f.md.jpg" class="img-responsive descrimg lazy"></a> <br><br>Torrent Downloaded From ProstyleX<br>For More Exclusive Stuff Visit Us <a target="_blank" href="https://prostylex.org">https://prostylex.org</a> <br><br>https://www.imdb.com/title/tt10838180/<br><br>RELEASE: The.Matrix.Resurrections.2021.HDRip.XviD.AC3-EVO<br><br>ViDEO: 1 269 kb/s<br><br>RESOLUTiON: 720x384<br><br>RUNTiME: 2 h 27 min<br><br>SUBTiTLES: No.<br><br>AUDiO: 384 kb/s E-AC-3 6 channels (CORE)<br><br>LANGUAGE: ENGLiSH<br><br>ENCODER: eSc<br><br>SPECIAL THANKS TO: BOSS_HITMAN + DdHD + KING_DVD + Ach + Mr. Spy + Warm + MUSE<br><br>NOTES: Smaller release. Enjoy.<br><br><a target="_blank" href="https://orangepix.is/image/lr3VG"><img src="/images/profile-load.svg" data-original="https://orangepix.is/images/2021/12/22/83ab94af7c8adf35f912fb7f7e7c5fee.md.png" class="img-responsive descrimg lazy"></a> <br><a target="_blank" href="https://orangepix.is/image/lrgov"><img src="/images/profile-load.svg" data-original="https://orangepix.is/images/2021/12/22/cebb36cf2ee64ead97de316aa3b0f703.md.png" class="img-responsive descrimg lazy"></a> <br><a target="_blank" href="https://orangepix.is/image/lrYZc"><img src="/images/profile-load.svg" data-original="https://orangepix.is/images/2021/12/22/1b9167011ccdbbd27467bba134df53d5.md.png" class="img-responsive descrimg lazy"></a> <br><a target="_blank" href="https://orangepix.is/image/lrVtr"><img src="/images/profile-load.svg" data-original="https://orangepix.is/images/2021/12/22/ec77236be09a5a868bcc0ebfdf590896.md.png" class="img-responsive descrimg lazy"></a></p>]]></content>
		</entry>
		<entry>
			<title>The.Matrix.Resurrections.2021.720p.HMAX.WEBRip.900MB.x264-GalaxyRG</title>
			<link rel="alternate" type="text/html" href="http://1337x.to/torrent/5093005/The-Matrix-Resurrections-2021-720p-HMAX-WEBRip-900MB-x264-GalaxyRG/"/>
			<id>http://1337x.to/torrent/5093005/The-Matrix-Resurrections-2021-720p-HMAX-WEBRip-900MB-x264-GalaxyRG/</id>
			<published>2021-12-21T23:00:00.000Z</published>
			<updated>2021-12-21T23:00:00.000Z</updated>
			<category term="Movies"/>
			<content type="html"><![CDATA[<p></p><p class="align-center"><br> <strong>The.Matrix.Resurrections.2021.720p.HMAX.WEBRip.900MB.x264-GalaxyRG[TGx] </strong><br> IMDB - <a target="_blank" href="https://www.imdb.com/title/tt10838180">https://www.imdb.com/title/tt10838180</a><br> <br> Upload provided by TorrentGalaxy<br> Visit us @ <a target="_blank" href="https://torrentgalaxy.to">https://torrentgalaxy.to</a><br> <br> -----------------------------------------------------------------------------------<br> <br> <strong>GENERAL INFO </strong><br> <strong>Genre </strong>: Science Fiction, Action, Adventure, Thriller<br> <strong>Director </strong>: Lana Wachowski<br> <strong>Stars </strong>: Keanu Reeves, Carrie-Anne Moss, Yahya Abdul-Mateen II, Jonathan Groff, Jessica Henwick<br> <strong>Plot </strong>: Plagued by strange memories, Neo's life takes an unexpected turn when he finds himself back inside the Matrix.<br> <br><strong>Included subtitles </strong><br>English, English, Spanish, Spanish<br> <br> -----------------------------------------------------------------------------------<br> <br> <strong>COVER </strong><br> <a target="_blank" href="https://www.themoviedb.org/movie/624860"><img src="/images/profile-load.svg" data-original="https://everest.picturedent.org/images/2021/12/22/tmpposter14004.jpg" class="img-responsive descrimg lazy"></a><br> <br> -----------------------------------------------------------------------------------<br> <br> <strong>SCREENSHOTS </strong><br> (Click to enlarge)<br> <a target="_blank" href="https://everest.picturedent.org/image/bVyJ"><img src="/images/profile-load.svg" data-original="https://everest.picturedent.org/images/2021/12/22/Harone15938.th.jpg" class="img-responsive descrimg lazy"></a> <a target="_blank" href="https://everest.picturedent.org/image/bVyW"><img src="/images/profile-load.svg" data-original="https://everest.picturedent.org/images/2021/12/22/Harone9780.th.jpg" class="img-responsive descrimg lazy"></a> <a target="_blank" href="https://everest.picturedent.org/image/bVyd"><img src="/images/profile-load.svg" data-original="https://everest.picturedent.org/images/2021/12/22/Harone12615.th.jpg" class="img-responsive descrimg lazy"></a> <a target="_blank" href="https://everest.picturedent.org/image/bVys"><img src="/images/profile-load.svg" data-original="https://everest.picturedent.org/images/2021/12/22/Harone23198.th.jpg" class="img-responsive descrimg lazy"></a> <a target="_blank" href="https://everest.picturedent.org/image/bVy4"><img src="/images/profile-load.svg" data-original="https://everest.picturedent.org/images/2021/12/22/Harone32360.th.jpg" class="img-responsive descrimg lazy"></a> <a target="_blank" href="https://everest.picturedent.org/image/bVy8"><img src="/images/profile-load.svg" data-original="https://everest.picturedent.org/images/2021/12/22/Harone26574.th.jpg" class="img-responsive descrimg lazy"></a><br> <br> -----------------------------------------------------------------------------------<br> <br> </p><div class="torrent-work green"><div class="torrent-work-heading"><h2>Code:</h2></div><div class="torrent-work-detail no-top-radius"><span class="icon-left"><i class="flaticon-hash-tag"></i></span><strong>MEDIAINFO </strong><br> Container = Matroska (mkv)<br> Duration = 02:27:54.923<br> Filesize = 897 MiB<br> Overall bitrate = 848 kb/s<br> ViDEO<br> Codec info = AVC <a href="/cdn-cgi/l/email-protection" class="__cf_email__" data-cfemail="abe3c2ccc3ebe798859a">[email&nbsp;protected]</a> | V_MPEG4/ISO/AVC<br> Resolution = 1280x536<br> Display AR = 2.388 | 2.40:1<br> Bitrate = 8 209 kb/s<br> Framerate = CFR 23.976<br> Color space = YUV<br> Chroma subsampling = 4:2:0<br> Encoder = x264 - core 157<br> AUDiO<br> Codec info = AAC | A_AAC-2<br> Channels = 2<br> Bitrate = 768 kb/s<br> Samplerate = 48.0 kHz<br> Language = English<br> <br><strong>Included subtitles </strong><br>English, English, Spanish, Spanish<br><span class="icon-right"><i class="flaticon-hash-tag"></i></span></div></div><p><br> </p><p></p>]]></content>
		</entry>
		<entry>
			<title>The.Matrix.Resurrections.2021.1080p.HMAX.WEBRip.1600MB.DD5.1.x264-GalaxyRG</title>
			<link rel="alternate" type="text/html" href="http://1337x.to/torrent/5093026/The-Matrix-Resurrections-2021-1080p-HMAX-WEBRip-1600MB-DD5-1-x264-GalaxyRG/"/>
			<id>http://1337x.to/torrent/5093026/The-Matrix-Resurrections-2021-1080p-HMAX-WEBRip-1600MB-DD5-1-x264-GalaxyRG/</id>
			<published>2021-12-21T23:00:00.000Z</published>
			<updated>2021-12-21T23:00:00.000Z</updated>
			<category term="Movies"/>
			<content type="html"><![CDATA[<p></p><p class="align-center"><br> <strong>The.Matrix.Resurrections.2021.1080p.HMAX.WEBRip.1600MB.DD5.1.x264-GalaxyRG[TGx] </strong><br> IMDB - <a target="_blank" href="https://www.imdb.com/title/tt10838180">https://www.imdb.com/title/tt10838180</a><br> <br> Upload provided by TorrentGalaxy<br> Visit us @ <a target="_blank" href="https://torrentgalaxy.to">https://torrentgalaxy.to</a><br> <br> -----------------------------------------------------------------------------------<br> <br> <strong>GENERAL INFO </strong><br> <strong>Genre </strong>: Science Fiction, Action, Adventure, Thriller<br> <strong>Director </strong>: Lana Wachowski<br> <strong>Stars </strong>: Keanu Reeves, Carrie-Anne Moss, Yahya Abdul-Mateen II, Jonathan Groff, Jessica Henwick<br> <strong>Plot </strong>: Plagued by strange memories, Neo's life takes an unexpected turn when he finds himself back inside the Matrix.<br> <br><strong>Included subtitles </strong><br>English, English, Spanish, Spanish<br> <br> -----------------------------------------------------------------------------------<br> <br> <strong>COVER </strong><br> <a target="_blank" href="https://www.themoviedb.org/movie/624860"><img src="/images/profile-load.svg" data-original="https://everest.picturedent.org/images/2021/12/22/tmpposter5392.jpg" class="img-responsive descrimg lazy"></a><br> <br> -----------------------------------------------------------------------------------<br> <br> <strong>SCREENSHOTS </strong><br> (Click to enlarge)<br> <a target="_blank" href="https://everest.picturedent.org/image/bV6k"><img src="/images/profile-load.svg" data-original="https://everest.picturedent.org/images/2021/12/22/Harone4697.th.jpg" class="img-responsive descrimg lazy"></a> <a target="_blank" href="https://everest.picturedent.org/image/bV6m"><img src="/images/profile-load.svg" data-original="https://everest.picturedent.org/images/2021/12/22/Harone32203.th.jpg" class="img-responsive descrimg lazy"></a> <a target="_blank" href="https://everest.picturedent.org/image/bV6u"><img src="/images/profile-load.svg" data-original="https://everest.picturedent.org/images/2021/12/22/Harone25163.th.jpg" class="img-responsive descrimg lazy"></a> <a target="_blank" href="https://everest.picturedent.org/image/bV65"><img src="/images/profile-load.svg" data-original="https://everest.picturedent.org/images/2021/12/22/Harone15711.th.jpg" class="img-responsive descrimg lazy"></a> <a target="_blank" href="https://everest.picturedent.org/image/bV6U"><img src="/images/profile-load.svg" data-original="https://everest.picturedent.org/images/2021/12/22/Harone27740.th.jpg" class="img-responsive descrimg lazy"></a> <a target="_blank" href="https://everest.picturedent.org/image/bV63"><img src="/images/profile-load.svg" data-original="https://everest.picturedent.org/images/2021/12/22/Harone23881.th.jpg" class="img-responsive descrimg lazy"></a><br> <br> -----------------------------------------------------------------------------------<br> <br> </p><div class="torrent-work green"><div class="torrent-work-heading"><h2>Code:</h2></div><div class="torrent-work-detail no-top-radius"><span class="icon-left"><i class="flaticon-hash-tag"></i></span><strong>MEDIAINFO </strong><br> Container = Matroska (mkv)<br> Duration = 02:27:54.880<br> Filesize = 2 GiB<br> Overall bitrate = 1 553 kb/s<br> ViDEO<br> Codec info = AVC <a href="/cdn-cgi/l/email-protection" class="__cf_email__" data-cfemail="5b13323c331b176f">[email&nbsp;protected]</a> | V_MPEG4/ISO/AVC<br> Resolution = 1920x804<br> Display AR = 2.388 | 2.40:1<br> Bitrate = 8 209 kb/s<br> Framerate = VFR 23.976<br> Color space = YUV<br> Chroma subsampling = 4:2:0<br> Encoder = x264 - core 157<br> AUDiO<br> Codec info = AC-3 | A_AC3<br> Channels = 6<br> Bitrate = CBR 320 kb/s<br> Samplerate = 48.0 kHz<br> Language = English<br> <br><strong>Included subtitles </strong><br>English, English, Spanish, Spanish<br><span class="icon-right"><i class="flaticon-hash-tag"></i></span></div></div><p><br> </p><p></p>]]></content>
		</entry>
		<entry>
			<title>The.Matrix.4.Resurrections.2021.2160p.HMAX.WEB-DL.DDP5.1.Atmos.DV.MKV.x265-PECULATE</title>
			<link rel="alternate" type="text/html" href="http://1337x.to/torrent/5093860/The-Matrix-4-Resurrections-2021-2160p-HMAX-WEB-DL-DDP5-1-Atmos-DV-MKV-x265-PECULATE/"/>
			<id>http://1337x.to/torrent/5093860/The-Matrix-4-Resurrections-2021-2160p-HMAX-WEB-DL-DDP5-1-Atmos-DV-MKV-x265-PECULATE/</id>
			<published>2021-12-21T23:00:00.000Z</published>
			<updated>2021-12-21T23:00:00.000Z</updated>
			<category term="Movies"/>
			<content type="html"><![CDATA[<p><img src="/images/profile-load.svg" data-original="https://dyncdn.me/mimages/344952/poster_opt.jpg" class="img-responsive descrimg lazy"> <br><br></p><div class="torrent-work"><div class="torrent-work-heading"><h2>Quote:</h2></div><div class="torrent-work-detail no-top-radius"><span class="icon-left"><i class="flaticon-quote-right"></i></span>Video<br>ID : 1<br>Format : HEVC<br>Format/Info : High Efficiency Video Coding<br>Format profile : Main <a href="/cdn-cgi/l/email-protection" class="__cf_email__" data-cfemail="3c0d0c7c7009">[email&nbsp;protected]</a>@Main<br>HDR format : Dolby Vision, Version 1.0, dvhe.05.06, BL+RPU<br>Codec ID : V_MPEGH/ISO/HEVC<br>Duration : 2 h 27 min<br>Bit rate : 17.8 Mb/s<br>Width : 3 840 pixels<br>Height : 2 160 pixels<br>Display aspect ratio : 16:9<br>Frame rate mode : Constant<br>Frame rate : 23.976 (24000/1001) FPS<br>Color space : YUV<br>Chroma subsampling : 4:2:0<br>Bit depth : 10 bits<br>Bits/(Pixel*Frame) : 0.090<br>Stream size : 18.4 GiB (96%)<br>Writing library : x265 3.4hy:[Linux][GCC 7.5.0][64 bit] 10bit<br>Encoding settings : cpuid=1111039 / frame-threads=6 / no-wpp / no-pmode / no-pme / no-psnr / no-ssim / log-level=2 / input-csp=1 / input-res=3840x2160 / interlace=0 / total-frames=0 / level-idc=0 / high-tier=1 / uhd-bd=0 / ref=4 / no-allow-non-conformance / repeat-headers / annexb / aud / hrd / info / hash=0 / no-temporal-layers / no-open-gop / min-keyint=96 / keyint=96 / gop-lookahead=0 / bframes=4 / b-adapt=2 / b-pyramid / bframe-bias=0 / rc-lookahead=25 / lookahead-slices=4 / scenecut=40 / hist-scenecut=0 / radl=0 / no-splice / no-intra-refresh / ctu=64 / min-cu-size=8 / rect / no-amp / max-tu-size=32 / tu-inter-depth=1 / tu-intra-depth=1 / limit-tu=0 / rdoq-level=2 / dynamic-rd=0.00 / no-ssim-rd / signhide / no-tskip / nr-intra=0 / nr-inter=0 / no-constrained-intra / strong-intra-smoothing / max-merge=3 / limit-refs=3 / limit-modes / me=3 / subme=3 / merange=57 / temporal-mvp / no-frame-dup / no-hme / weightp / no-weightb / no-analyze-src-pics / deblock=0:0 / sao / no-sao-non-deblock / rd=4 / selective-sao=4 / no-early-skip / rskip / no-fast-intra / no-tskip-fast / no-cu-lossless / no-b-intra / no-splitrd-skip / rdpenalty=0 / psy-rd=2.00 / psy-rdoq=1.00 / no-rd-refine / no-lossless / cbqpoffs=0 / crqpoffs=3 / rc=abr / bitrate=18000 / qcomp=0.60 / qpstep=4 / stats-write=0 / stats-read=2 / cplxblur=20.0 / qblur=0.5 / vbv-maxrate=24500 / vbv-bufsize=24500 / vbv-init=0.6 / vbv-end=0.6 / vbv-end-fr-adj=0.0 / ipratio=1.40 / pbratio=1.30 / aq-mode=2 / aq-strength=1.00 / cutree / zone-count=0 / no-strict-cbr / qg-size=32 / no-rc-grain / qpmax=69 / qpmin=0 / no-const-vbv / sar=1 / overscan=0 / videoformat=5 / range=1 / colorprim=2 / transfer=2 / colormatrix=2 / chromaloc=0 / display-window=0 / cll=0,0 / min-luma=0 / max-luma=1023 / log2-max-poc-lsb=8 / vui-timing-info / vui-hrd-info / no-concatenation / slices=1 / no-opt-qp-pps / no-opt-ref-list-length-pps / no-multi-pass-opt-rps / scenecut-bias=0.05 / hist-threshold=0.01 / no-opt-cu-delta-qp / no-aq-motion / no-hdr10 / no-hdr10-opt / no-dhdr10-opt / no-idr-recovery-sei / analysis-reuse-level=0 / analysis-save-reuse-level=0 / analysis-load-reuse-level=0 / scale-factor=0 / refine-intra=0 / refine-inter=0 / refine-mv=1 / refine-ctu-distortion=0 / no-limit-sao / ctu-info=0 / no-lowpass-dct / refine-analysis-type=0 / copy-pic=1 / max-ausize-factor=1.0 / no-dynamic-refine / no-single-sei / no-hevc-aq / no-svt / no-field / qp-adaptation-range=1.00 / no-scenecut-aware-qpconformance-window-offsets / right=0 / bottom=0 / decoder-max-rate=0<br>Language : English<br>Default : Yes<br>Forced : No<br>Color range : Full<br><br>Audio<br>ID : 2<br>Format : E-AC-3 JOC<br>Format/Info : Enhanced AC-3 with Joint Object Coding<br>Commercial name : Dolby Digital Plus with Dolby Atmos<br>Codec ID : A_EAC3<br>Duration : 2 h 27 min<br>Bit rate mode : Constant<br>Bit rate : 768 kb/s<br>Channel(s) : 6 channels<br>Channel layout : L R C LFE Ls Rs<br>Sampling rate : 48.0 kHz<br>Frame rate : 31.250 FPS (1536 SPF)<br>Compression mode : Lossy<br>Stream size : 813 MiB (4%)<br>Language : English<br>Service kind : Complete Main<br>Default : Yes<br>Forced : No<br>Complexity index : 16<br>Number of dynamic objects : 15<br>Bed channel count : 1 channel<br>Bed channel configuration : LFE<br><br>Text #1<br>ID : 3<br>Format : UTF-8<br>Codec ID : S_TEXT/UTF8<br>Codec ID/Info : UTF-8 Plain Text<br>Duration : 2 h 27 min<br>Bit rate : 51 b/s<br>Count of elements : 2185<br>Stream size : 55.7 KiB (0%)<br>Title : English [CC]<br>Language : English<br>Default : No<br>Forced : No<br><br>Text #2<br>ID : 4<br>Format : UTF-8<br>Codec ID : S_TEXT/UTF8<br>Codec ID/Info : UTF-8 Plain Text<br>Duration : 2 h 27 min<br>Bit rate : 52 b/s<br>Count of elements : 2129<br>Stream size : 57.1 KiB (0%)<br>Title : Latin American Spanish [CC]<br>Language : Spanish<br>Default : No<br>Forced : No<span class="icon-right"><i class="flaticon-quote-left"></i></span></div></div><p> <br><br><img src="/images/profile-load.svg" data-original="https://everest.picturedent.org/images/2021/12/22/Harone26580.jpg" class="img-responsive descrimg lazy"></p>]]></content>
		</entry>
		<entry>
			<title>The.Matrix.Resurrections.2021.2160p.10bit.HDR.DV.WEBRip.6CH.x265.HEVC-PSA</title>
			<link rel="alternate" type="text/html" href="http://1337x.to/torrent/5093857/The-Matrix-Resurrections-2021-2160p-10bit-HDR-DV-WEBRip-6CH-x265-HEVC-PSA/"/>
			<id>http://1337x.to/torrent/5093857/The-Matrix-Resurrections-2021-2160p-10bit-HDR-DV-WEBRip-6CH-x265-HEVC-PSA/</id>
			<published>2021-12-21T23:00:00.000Z</published>
			<updated>2021-12-21T23:00:00.000Z</updated>
			<category term="Movies"/>
			<content type="html"><![CDATA[<p><img src="/images/profile-load.svg" data-original="https://psa.pm/wp-content/uploads/2021/12/mtrix4.jpg" class="img-responsive descrimg lazy"> <br><br></p><div class="torrent-work"><div class="torrent-work-heading"><h2>Quote:</h2></div><div class="torrent-work-detail no-top-radius"><span class="icon-left"><i class="flaticon-quote-right"></i></span>General<br>File size : 4.62 GB<br>Duration : 2h 27mn 54sc<br>IMDB : https://www.imdb.com/title/tt10838180/<br>Source : The.Matrix.Resurrections.2021.HDR.2160p.WEB.H265-PECULATE | 19.2 GB<br>Source : The.Matrix.Resurrections.2021.DV.2160p.WEB.H265-PECULATE | 19.1 GB<br><br>Video<br>Format : HEVC<br>Format/Info : High Efficiency Video Coding<br>Format profile : Main <a href="/cdn-cgi/l/email-protection" class="__cf_email__" data-cfemail="cdfcfd8d81f8">[email&nbsp;protected]</a>@High<br>HDR format : Dolby Vision, Version 1.0, dvhe.08.06, BL+RPU, HDR10 compatible / SMPTE ST 2086, HDR10 compatible<br>Width : 3 840 pixels<br>Height : 2 160 pixels<br>Display aspect ratio : 16:9<br>Frame rate mode : Constant<br>Frame rate : 23.976 (24000/1001) FPS<br>Color space : YUV<br>Chroma subsampling : 4:2:0 (Type 2)<br>Bit depth : 10 bits<br>Default : Yes<br>Forced : No<br>Color range : Limited<br>Color primaries : BT.2020<br><br>Audio<br>Format : AAC<br>Format/Info : HE-AAC<br>Channel(s) : 6 Channels<br>Language : English<br>Default : Yes<br>Forced : No<br><br>Text<br>Format : UTF-8<br>Language : English<br>Default : Yes<br>Forced : No<br><br>Text<br>Format : UTF-8<br>Language : Spanish<br>Default : No<br>Forced : No<span class="icon-right"><i class="flaticon-quote-left"></i></span></div></div><p> <br><br><img src="/images/profile-load.svg" data-original="https://everest.picturedent.org/images/2021/12/22/Harone26580.jpg" class="img-responsive descrimg lazy"></p>]]></content>
		</entry>
		<entry>
			<title>The.Matrix.Resurrections.2021.1080p.HMAX.WEB-DL.DDP5.1.Atmos.x264-EVO</title>
			<link rel="alternate" type="text/html" href="http://1337x.to/torrent/5093009/The-Matrix-Resurrections-2021-1080p-HMAX-WEB-DL-DDP5-1-Atmos-x264-EVO/"/>
			<id>http://1337x.to/torrent/5093009/The-Matrix-Resurrections-2021-1080p-HMAX-WEB-DL-DDP5-1-Atmos-x264-EVO/</id>
			<published>2021-12-21T23:00:00.000Z</published>
			<updated>2021-12-21T23:00:00.000Z</updated>
			<category term="Movies"/>
			<content type="html"><![CDATA[<p><a target="_blank" href="https://orangepix.is/image/lrSHM"><img src="/images/profile-load.svg" data-original="https://orangepix.is/images/2021/12/22/3f9cf617fe79eaf19a99f342d26a818f.md.jpg" class="img-responsive descrimg lazy"></a> <br><br>Torrent Downloaded From ProstyleX<br>For More Exclusive Stuff Visit Us <a target="_blank" href="https://prostylex.org">https://prostylex.org</a> <br><br>https://www.imdb.com/title/tt10838180/<br><br>RELEASE: The.Matrix.Resurrections.2021.1080p.HMAX.WEB-DL.DDP5.1.Atmos.x264-EVO<br><br>ViDEO: 8 269 kb/s<br><br>RESOLUTiON: 1920x800<br><br>RUNTiME: 2 h 12 min<br><br>SUBTiTLES: No.<br><br>AUDiO: 768 kb/s E-AC-3 6 channels (CORE)<br><br>LANGUAGE: ENGLiSH<br><br>ENCODER: eSc<br><br>SPECIAL THANKS TO: BOSS_HITMAN + DdHD + KING_DVD + Ach + Mr. Spy + Warm + MUSE<br><br>NOTES: Enjoy.<br><br><a target="_blank" href="https://orangepix.is/image/lrkUD"><img src="/images/profile-load.svg" data-original="https://orangepix.is/images/2021/12/22/2768eb308b264ee830b986026644513c.md.png" class="img-responsive descrimg lazy"></a> <br><a target="_blank" href="https://orangepix.is/image/lrzQL"><img src="/images/profile-load.svg" data-original="https://orangepix.is/images/2021/12/22/6e7344b3b471c671883e610af7d36043.md.png" class="img-responsive descrimg lazy"></a> <br><a target="_blank" href="https://orangepix.is/image/lrcMx"><img src="/images/profile-load.svg" data-original="https://orangepix.is/images/2021/12/22/4713141e7e6ff16086fb57a9aa66c4f5.md.png" class="img-responsive descrimg lazy"></a> <br><a target="_blank" href="https://orangepix.is/image/lr67N"><img src="/images/profile-load.svg" data-original="https://orangepix.is/images/2021/12/22/787f2e2a9aa7a9ca14ecd480a0f5dfe7.md.png" class="img-responsive descrimg lazy"></a></p>]]></content>
		</entry>
		<entry>
			<title>The Matrix (1999) 720p BrRip x264 - 700mb - YIFY </title>
			<link rel="alternate" type="text/html" href="http://1337x.to/torrent/240847/The-Matrix-1999-720p-BrRip-x264-700mb-YIFY/"/>
			<id>http://1337x.to/torrent/240847/The-Matrix-1999-720p-BrRip-x264-700mb-YIFY/</id>
			<published>2021-12-21T23:00:00.000Z</published>
			<updated>2021-12-21T23:00:00.000Z</updated>
			<category term="Movies"/>
			<content type="html"><![CDATA[<p> <a target="_blank" href="http://www.yify-torrents.com"><img src="/images/profile-load.svg" data-original="http://i.min.us/iUDOCknAFoU6E.png" class="img-responsive descrimg lazy"></a> <br><br><br><br><img src="/images/profile-load.svg" data-original="http://i.minus.com/iedCaO9gA2bBR.jpg" class="img-responsive descrimg lazy"> <br><br><br><img src="/images/profile-load.svg" data-original="http://www.imdb.com/title/tt0133093/" class="img-responsive descrimg lazy"> <br><br><br>IMDB RATING: 8.7<br><br><br><br> [FORMAT]:.......................[ MP4<br> [GENRE]:........................[ Action/Adventure/Sci-Fi<br> [FILE SIZE]:....................[ 700MB<br> [RESOLUTION]:...................[ 1280*532<br> [ASPECT RATIO]:.................[ 2.35:1<br> [FRAME RATE]:...................[ 23.976 fps<br> [LANGUAGE ]:....................[ English<br> [SUBTITLES]:....................[ English (SRT File)<br> [RUNTIME]:......................[ 2h 16mn<br> [SOURCE]:.......................[ 720p<br><br><br>A computer hacker learns from mysterious rebels about the true nature of his reality and his role in the war against its controllers. <br><br><br>Screenshots:<br> <br><img src="/images/profile-load.svg" data-original="http://image.bayimg.com/iakbkaada.jpg" class="img-responsive descrimg lazy"> <br> <br><img src="/images/profile-load.svg" data-original="http://image.bayimg.com/iakboaada.jpg" class="img-responsive descrimg lazy"> <br> <br><img src="/images/profile-load.svg" data-original="http://image.bayimg.com/iakbpaada.jpg" class="img-responsive descrimg lazy"> <br></p>]]></content>
		</entry>
		<entry>
			<title>The.Matrix.Resurrections.2021.1080p.HMAX.WEBRip.DD5.1.X.264-EVO</title>
			<link rel="alternate" type="text/html" href="http://1337x.to/torrent/5097723/The-Matrix-Resurrections-2021-1080p-HMAX-WEBRip-DD5-1-X-264-EVO/"/>
			<id>http://1337x.to/torrent/5097723/The-Matrix-Resurrections-2021-1080p-HMAX-WEBRip-DD5-1-X-264-EVO/</id>
			<published>2021-12-21T23:00:00.000Z</published>
			<updated>2021-12-21T23:00:00.000Z</updated>
			<category term="Movies"/>
			<content type="html"><![CDATA[<p></p><p class="align-center"> <br><br>The Matrix Resurrections 2021 1080p HMAX WEBRip DD5 1 X 264-EVO<br><br><img src="/images/profile-load.svg" data-original="https://i.postimg.cc/x86cy0W6/1.jpg" class="img-responsive descrimg lazy"> <br><br>RELEASE: The.Matrix.Resurrections.2021.1080p.HMAX.WEBRip.DD5.1.X.264-EVO<br><br>ViDEO: 2 200 kb/s<br><br>RESOLUTiON: 1920x804<br><br>RUNTiME: 2 h 27 min<br><br>SUBTiTLES: No.<br><br>AUDiO: 384 kb/s AC-3 6 channels (CORE)<br><br>LANGUAGE: ENGLiSH<br><br>ENCODER: eSc<br><br>SPECIAL THANKS TO: BOSS_HITMAN + DdHD + KING_DVD + Ach + Mr. Spy + Warm + MUSE<br><br>NOTES: Enjoy.<br><br>Screens:<br><br><a target="_blank" href="https://imgmak.com/image/D1dzU"><img src="/images/profile-load.svg" data-original="https://imgmak.com/images/2021/12/30/3YdFQKo.th.png" class="img-responsive descrimg lazy"></a> <a target="_blank" href="https://imgmak.com/image/DgEHm"><img src="/images/profile-load.svg" data-original="https://imgmak.com/images/2021/12/30/Xtj48IG.th.png" class="img-responsive descrimg lazy"></a> <a target="_blank" href="https://imgmak.com/image/DgHMN"><img src="/images/profile-load.svg" data-original="https://imgmak.com/images/2021/12/30/LPKgBwj.th.png" class="img-responsive descrimg lazy"></a> <a target="_blank" href="https://imgmak.com/image/DgT5h"><img src="/images/profile-load.svg" data-original="https://imgmak.com/images/2021/12/30/18LAFBB.th.png" class="img-responsive descrimg lazy"></a> <br><br></p><p></p>]]></content>
		</entry>
		<entry>
			<title>The.Matrix.Resurrections.2021.2160p.HMAX.WEB-DL.DDP5.1.Atmos.HDR.HEVC-CMRG[TGx]</title>
			<link rel="alternate" type="text/html" href="http://1337x.to/torrent/5093000/The-Matrix-Resurrections-2021-2160p-HMAX-WEB-DL-DDP5-1-Atmos-HDR-HEVC-CMRG-TGx/"/>
			<id>http://1337x.to/torrent/5093000/The-Matrix-Resurrections-2021-2160p-HMAX-WEB-DL-DDP5-1-Atmos-HDR-HEVC-CMRG-TGx/</id>
			<published>2021-12-21T23:00:00.000Z</published>
			<updated>2021-12-21T23:00:00.000Z</updated>
			<category term="Movies"/>
			<content type="html"><![CDATA[<p></p><p class="align-center"><br> <strong>The.Matrix.Resurrections.2021.2160p.HMAX.WEB-DL.DDP5.1.Atmos.HDR.HEVC-CMRG[TGx] </strong><br> IMDB - <a target="_blank" href="https://www.imdb.com/title/tt10838180">https://www.imdb.com/title/tt10838180</a><br> <br> Upload provided by TorrentGalaxy<br> Visit us @ <a target="_blank" href="https://torrentgalaxy.to">https://torrentgalaxy.to</a><br> <br> -----------------------------------------------------------------------------------<br> <br> <strong>GENERAL INFO </strong><br> <strong>Genre </strong>: Science Fiction, Action, Adventure, Thriller<br> <strong>Director </strong>: Lana Wachowski<br> <strong>Stars </strong>: Keanu Reeves, Carrie-Anne Moss, Yahya Abdul-Mateen II, Jonathan Groff, Jessica Henwick<br> <strong>Plot </strong>: Plagued by strange memories, Neo's life takes an unexpected turn when he finds himself back inside the Matrix.<br> <br><strong>Included subtitles </strong><br>English, English, Spanish, Spanish<br> <br> -----------------------------------------------------------------------------------<br> <br> <strong>COVER </strong><br> <a target="_blank" href="https://www.themoviedb.org/movie/624860"><img src="/images/profile-load.svg" data-original="https://everest.picturedent.org/images/2021/12/22/tmpposter22541.jpg" class="img-responsive descrimg lazy"></a><br> <br> -----------------------------------------------------------------------------------<br> <br> <strong>SCREENSHOTS </strong><br> (Click to enlarge)<br> <a target="_blank" href="https://everest.picturedent.org/image/bVyq"><img src="/images/profile-load.svg" data-original="https://everest.picturedent.org/images/2021/12/22/Harone20921.th.jpg" class="img-responsive descrimg lazy"></a> <a target="_blank" href="https://everest.picturedent.org/image/bVyt"><img src="/images/profile-load.svg" data-original="https://everest.picturedent.org/images/2021/12/22/Harone31174.th.jpg" class="img-responsive descrimg lazy"></a> <a target="_blank" href="https://everest.picturedent.org/image/bVy2"><img src="/images/profile-load.svg" data-original="https://everest.picturedent.org/images/2021/12/22/Harone24225.th.jpg" class="img-responsive descrimg lazy"></a> <a target="_blank" href="https://everest.picturedent.org/image/bVyF"><img src="/images/profile-load.svg" data-original="https://everest.picturedent.org/images/2021/12/22/Harone28947.th.jpg" class="img-responsive descrimg lazy"></a> <a target="_blank" href="https://everest.picturedent.org/image/bVyi"><img src="/images/profile-load.svg" data-original="https://everest.picturedent.org/images/2021/12/22/Harone7621.th.jpg" class="img-responsive descrimg lazy"></a> <a target="_blank" href="https://everest.picturedent.org/image/bVyj"><img src="/images/profile-load.svg" data-original="https://everest.picturedent.org/images/2021/12/22/Harone26580.th.jpg" class="img-responsive descrimg lazy"></a><br> <br> -----------------------------------------------------------------------------------<br> <br> </p><div class="torrent-work green"><div class="torrent-work-heading"><h2>Code:</h2></div><div class="torrent-work-detail no-top-radius"><span class="icon-left"><i class="flaticon-hash-tag"></i></span><strong>MEDIAINFO </strong><br> Container = Matroska (mkv)<br> Duration = 02:27:54.880<br> Filesize = 19 GiB<br> Overall bitrate = 18.6 Mb/s<br> ViDEO<br> Codec info = HEVC Main <a href="/cdn-cgi/l/email-protection" class="__cf_email__" data-cfemail="b68786f6fa83">[email&nbsp;protected]</a>@Main | V_MPEGH/ISO/HEVC<br> Resolution = 3840x2160<br> Display AR = 1.778 | 16:9<br> Bitrate = 17.8 Mb/s<br> Framerate = CFR 23.976<br> Color space = YUV<br> Chroma subsampling = 4:2:0<br> Encoder = x265 - 3.4hy:[Linux][GCC 7.5.0][64 bit] 10bit<br> AUDiO<br> Codec info = E-AC-3 | A_EAC3<br> Channels = 6<br> Bitrate = CBR 768 kb/s<br> Samplerate = 48.0 kHz<br> Language = English<br> <br><strong>Included subtitles </strong><br>English, English, Spanish, Spanish<br><span class="icon-right"><i class="flaticon-hash-tag"></i></span></div></div><p><br> </p><p></p>]]></content>
		</entry>
		<entry>
			<title>The.Matrix.Resurrections.2021.720p.WEB.H264-NAISU</title>
			<link rel="alternate" type="text/html" href="http://1337x.to/torrent/5092993/The-Matrix-Resurrections-2021-720p-WEB-H264-NAISU/"/>
			<id>http://1337x.to/torrent/5092993/The-Matrix-Resurrections-2021-720p-WEB-H264-NAISU/</id>
			<published>2021-12-21T23:00:00.000Z</published>
			<updated>2021-12-21T23:00:00.000Z</updated>
			<category term="Movies"/>
			<content type="html"><![CDATA[<p></p><p class="align-center">Screens... (click to enlarge):<br><a target="_blank" href="https://checkmy.pictures/image/gBtCt"><img src="/images/profile-load.svg" data-original="https://checkmy.pictures/images/2021/12/22/33909799804028045095.th.jpg" class="img-responsive descrimg lazy"></a><br></p><p><br>Screenshots:<br> <br> The.Matrix.Resurrections.2021.720p.WEB.H264-NAISU<br><br>Mediainfo<br></p><div class="torrent-work"><div class="torrent-work-heading"><h2>Quote:</h2></div><div class="torrent-work-detail no-top-radius"><span class="icon-left"><i class="flaticon-quote-right"></i></span>Video<br>ID : 1<br>Format : AVC<br>Format/Info : Advanced Video Codec<br>Format profile : <a href="/cdn-cgi/l/email-protection" class="__cf_email__" data-cfemail="cc81ada5a28c80ffe2fd">[email&nbsp;protected]</a><br>Format settings : CABAC / 4 Ref Frames<br>Format settings, CABAC : Yes<br>Format settings, Reference frames : 4 frames<br>Codec ID : V_MPEG4/ISO/AVC<br>Duration : 2 h 27 min<br>Bit rate mode : Variable<br>Bit rate : 3 400 kb/s<br>Maximum bit rate : 5 100 kb/s<br>Width : 1 280 pixels<br>Height : 544 pixels<br>Display aspect ratio : 2.35:1<br>Frame rate mode : Constant<br>Frame rate : 23.976 (24000/1001) FPS<br>Color space : YUV<br>Chroma subsampling : 4:2:0<br>Bit depth : 8 bits<br>Scan type : Progressive<br>Bits/(Pixel*Frame) : 0.204<br>Stream size : 3.42 GiB (80%)<br>Writing library : x264 core 157 r2965 861cec4<br>Encoding settings : cabac=1 / ref=4 / deblock=1:0:0 / analyse=0x1:0x111 / me=hex / subme=7 / psy=1 / psy_rd=1.00:0.00 / mixed_ref=1 / me_range=16 / chroma_me=1 / trellis=1 / 8x8dct=0 / cqm=0 / deadzone=21,11 / fast_pskip=1 / chroma_qp_offset=-2 / threads=17 / lookahead_threads=2 / sliced_threads=0 / nr=0 / decimate=1 / interlaced=0 / bluray_compat=0 / constrained_intra=0 / bframes=3 / b_pyramid=2 / b_adapt=1 / b_bias=0 / direct=1 / weightb=1 / open_gop=0 / weightp=2 / keyint=96 / keyint_min=96 / scenecut=40 / intra_refresh=0 / rc_lookahead=40 / rc=2pass / mbtree=1 / bitrate=3400 / ratetol=1.0 / qcomp=0.60 / qpmin=0 / qpmax=69 / qpstep=4 / cplxblur=20.0 / qblur=0.5 / vbv_maxrate=5100 / vbv_bufsize=2550 / nal_hrd=vbr / filler=0 / ip_ratio=1.40 / aq=1:1.00<br>Default : Yes<br>Forced : No<br>Color range : Limited<br>Color primaries : BT.709<br>Transfer characteristics : BT.709<br>Matrix coefficients : BT.709<br><br>Audio<br>ID : 2<br>Format : E-AC-3 JOC<br>Format/Info : Enhanced AC-3 with Joint Object Coding<br>Commercial name : Dolby Digital Plus with Dolby Atmos<br>Codec ID : A_EAC3<br>Duration : 2 h 27 min<br>Bit rate mode : Constant<br>Bit rate : 768 kb/s<br>Channel(s) : 6 channels<br>Channel layout : L R C LFE Ls Rs<br>Sampling rate : 48.0 kHz<br>Frame rate : 31.250 FPS (1536 SPF)<br>Compression mode : Lossy<br>Stream size : 813 MiB (18%)<br>Language : English<br>Service kind : Complete Main<br>Default : Yes<br>Forced : No<br>Complexity index : 16<br>Number of dynamic objects : 15<br>Bed channel count : 1 channel<br>Bed channel configuration : LFE<br><br>Text #1<br>ID : 3<br>Format : UTF-8<br>Codec ID : S_TEXT/UTF8<br>Codec ID/Info : UTF-8 Plain Text<br>Title : English<br>Language : English<br>Default : No<br>Forced : No<br><br>Text #2<br>ID : 4<br>Format : UTF-8<br>Codec ID : S_TEXT/UTF8<br>Codec ID/Info : UTF-8 Plain Text<br>Title : Latin America Spanish<br>Language : Spanish<br>Default : No<br>Forced : No<span class="icon-right"><i class="flaticon-quote-left"></i></span></div></div><p></p>]]></content>
		</entry>
		<entry>
			<title>The.Matrix.Resurrections.2021.1080p.HMAX.WEB-DL.DDP5.1.Atmos.x264-EVO[TGx]</title>
			<link rel="alternate" type="text/html" href="http://1337x.to/torrent/5092989/The-Matrix-Resurrections-2021-1080p-HMAX-WEB-DL-DDP5-1-Atmos-x264-EVO-TGx/"/>
			<id>http://1337x.to/torrent/5092989/The-Matrix-Resurrections-2021-1080p-HMAX-WEB-DL-DDP5-1-Atmos-x264-EVO-TGx/</id>
			<published>2021-12-21T23:00:00.000Z</published>
			<updated>2021-12-21T23:00:00.000Z</updated>
			<category term="Movies"/>
			<content type="html"><![CDATA[<p></p><p class="align-center"><br> <strong>The.Matrix.Resurrections.2021.1080p.HMAX.WEB-DL.DDP5.1.Atmos.x264-EVO[TGx] </strong><br> IMDB - <a target="_blank" href="https://www.imdb.com/title/tt10838180">https://www.imdb.com/title/tt10838180</a><br> <br> Upload provided by TorrentGalaxy<br> Visit us @ <a target="_blank" href="https://torrentgalaxy.to">https://torrentgalaxy.to</a><br> <br> -----------------------------------------------------------------------------------<br> <br> <strong>GENERAL INFO </strong><br> <strong>Genre </strong>: Science Fiction, Action, Adventure, Thriller<br> <strong>Director </strong>: Lana Wachowski<br> <strong>Stars </strong>: Keanu Reeves, Carrie-Anne Moss, Yahya Abdul-Mateen II, Jonathan Groff, Jessica Henwick<br> <strong>Plot </strong>: Plagued by strange memories, Neo's life takes an unexpected turn when he finds himself back inside the Matrix.<br> <br> -----------------------------------------------------------------------------------<br> <br> <strong>COVER </strong><br> <a target="_blank" href="https://www.themoviedb.org/movie/624860"><img src="/images/profile-load.svg" data-original="https://everest.picturedent.org/images/2021/12/22/tmpposter25860.jpg" class="img-responsive descrimg lazy"></a><br> <br> -----------------------------------------------------------------------------------<br> <br> <strong>SCREENSHOTS </strong><br> (Click to enlarge)<br> <a target="_blank" href="https://everest.picturedent.org/image/bVyY"><img src="/images/profile-load.svg" data-original="https://everest.picturedent.org/images/2021/12/22/Harone31145.th.jpg" class="img-responsive descrimg lazy"></a> <a target="_blank" href="https://everest.picturedent.org/image/bVy0"><img src="/images/profile-load.svg" data-original="https://everest.picturedent.org/images/2021/12/22/Harone4455.th.jpg" class="img-responsive descrimg lazy"></a> <a target="_blank" href="https://everest.picturedent.org/image/bVyA"><img src="/images/profile-load.svg" data-original="https://everest.picturedent.org/images/2021/12/22/Harone1704.th.jpg" class="img-responsive descrimg lazy"></a> <a target="_blank" href="https://everest.picturedent.org/image/bVyD"><img src="/images/profile-load.svg" data-original="https://everest.picturedent.org/images/2021/12/22/Harone1565.th.jpg" class="img-responsive descrimg lazy"></a> <a target="_blank" href="https://everest.picturedent.org/image/bVyf"><img src="/images/profile-load.svg" data-original="https://everest.picturedent.org/images/2021/12/22/Harone14525.th.jpg" class="img-responsive descrimg lazy"></a> <a target="_blank" href="https://everest.picturedent.org/image/bVyE"><img src="/images/profile-load.svg" data-original="https://everest.picturedent.org/images/2021/12/22/Harone4677.th.jpg" class="img-responsive descrimg lazy"></a><br> <br> -----------------------------------------------------------------------------------<br> <br> </p><div class="torrent-work green"><div class="torrent-work-heading"><h2>Code:</h2></div><div class="torrent-work-detail no-top-radius"><span class="icon-left"><i class="flaticon-hash-tag"></i></span><strong>MEDIAINFO </strong><br> Container = Matroska (mkv)<br> Duration = 02:27:54.880<br> Filesize = 9 GiB<br> Overall bitrate = 8 979 kb/s<br> ViDEO<br> Codec info = AVC <a href="/cdn-cgi/l/email-protection" class="__cf_email__" data-cfemail="e9a1808e81a9a5dd">[email&nbsp;protected]</a> | V_MPEG4/ISO/AVC<br> Resolution = 1920x816<br> Display AR = 2.353 | 2.35:1<br> Bitrate = 8 250 kb/s<br> Framerate = CFR 23.976<br> Color space = YUV<br> Chroma subsampling = 4:2:0<br> Encoder = x264 - core 157 r2965 861cec4<br> AUDiO<br> Codec info = E-AC-3 | A_EAC3<br> Channels = 6<br> Bitrate = CBR 768 kb/s<br> Samplerate = 48.0 kHz<br> Language = English<br> <span class="icon-right"><i class="flaticon-hash-tag"></i></span></div></div><p><br> </p><p></p>]]></content>
		</entry>
		<entry>
			<title>The Matrix Reloaded (1999) 1080p BrRip x264 - 1.85GB - YIFY</title>
			<link rel="alternate" type="text/html" href="http://1337x.to/torrent/354764/The-Matrix-Reloaded-1999-1080p-BrRip-x264-1-85GB-YIFY/"/>
			<id>http://1337x.to/torrent/354764/The-Matrix-Reloaded-1999-1080p-BrRip-x264-1-85GB-YIFY/</id>
			<published>2021-12-21T23:00:00.000Z</published>
			<updated>2021-12-21T23:00:00.000Z</updated>
			<category term="Movies"/>
			<content type="html"><![CDATA[<p><a target="_blank" href="http://www.yify-torrents.com"><img src="/images/profile-load.svg" data-original="http://i.min.us/iUDOCknAFoU6E.png" class="img-responsive descrimg lazy"></a> <br><br><br><img src="/images/profile-load.svg" data-original="http://image.bayimg.com/eapoiaadb.jpg" class="img-responsive descrimg lazy"> <br><br><br><br><br><a target="_blank" href="https://www.imdb.com/title/tt0234215/">http://www.imdb.com/title/tt0234215/</a> <br> <br><br><br><br>IMDB RATING: 7.1<br><br><br><br> [FORMAT]:.......................[ MP4<br> [GENRE]:........................[ Adventure | Action | Sci-Fi<br> [FILE SIZE]:....................[ 1.85GB<br> [RESOLUTION]:...................[ 1920*800<br> [ASPECT RATIO]:.................[ 2.40:1<br> [FRAME RATE]:...................[ 23.976 fps<br> [LANGUAGE ]:....................[ English<br> [SUBTITLES]:....................[ English (SRT File)<br> [RUNTIME]:......................[ 2h 18mn<br> [SOURCE]:.......................[ 1080p<br><br><br>6 months after the events depicted in The Matrix, Neo has proved to be a good omen for the free humans, as more and more humans are being freed from the matrix and brought to Zion, the one and only stronghold of the Resistance. Neo himself has discovered his superpowers including super speed, ability to see the codes of the things inside the matrix and a certain degree of pre-cognition. But a nasty piece of news hits the human resistance: 250,000 machine sentinels are digging to Zion and would reach them in 72 hours. As Zion prepares for the ultimate war, Neo, Morpheus and Trinity are advised by the Oracle to find the Keymaker who would help them reach the Source. Meanwhile Neo's recurrent dreams depicting Trinity's death have got him worried and as if it was not enough, Agent Smith has somehow escaped deletion, has become more powerful than before and has fixed Neo as his next target.<br><br><br>Screenshots:<br> <br><img src="/images/profile-load.svg" data-original="http://i.minus.com/izAfxQCn9LXyP.png" class="img-responsive descrimg lazy"> <br> <br><img src="/images/profile-load.svg" data-original="http://i.minus.com/ivRY8c3QvI4TE.png" class="img-responsive descrimg lazy"> <br> <br><img src="/images/profile-load.svg" data-original="http://i.minus.com/ib28SMQNKIknQd.png" class="img-responsive descrimg lazy"> <br><br>-------------------------------------------------------------------------------<br><br>------------------------------------------------------------------------------- <br><br>YIFY Team;<br>Encoded by Bokutox </p>]]></content>
		</entry>
		<entry>
			<title>The.Complete.Matrix.Trilogy.Bluray.1080p.BluRay.x264.anoXmous</title>
			<link rel="alternate" type="text/html" href="http://1337x.to/torrent/4491094/The-Complete-Matrix-Trilogy-Bluray-1080p-BluRay-x264-anoXmous/"/>
			<id>http://1337x.to/torrent/4491094/The-Complete-Matrix-Trilogy-Bluray-1080p-BluRay-x264-anoXmous/</id>
			<published>2021-12-21T23:00:00.000Z</published>
			<updated>2021-12-21T23:00:00.000Z</updated>
			<category term="Movies"/>
			<content type="html"><![CDATA[<p></p><p class="align-center"><img src="/images/profile-load.svg" data-original="https://i.ibb.co/khGYfBm/the-matrix-ghe-TTo.png" class="img-responsive descrimg lazy"> <br><br>+ ETH 0xB89DeE4A1D24D6b65dc1790cc4A4F23c4B9802e2 +<br><br>The.Complete.Matrix.Trilogy.Bluray.1080p.BluRay.x264.anoXmous<br><br><img src="/images/profile-load.svg" data-original="https://i.ibb.co/zNrxyx1/the-matrix-collection-ghe-TTo.jpg" class="img-responsive descrimg lazy"> <br><br>===============================================================================<br><br>A computer hacker learns from mysterious rebels about the true nature of <br>his reality and his role in the war against its controllers.<br><br>General &nbsp; &nbsp; &nbsp; &nbsp; &nbsp; : The.Matrix.1999.Bluray.1080p.BluRay.x264.anoXmous.mp4<br>Format &nbsp; &nbsp; &nbsp; &nbsp; &nbsp; &nbsp;: MPEG-4 at 2 335 Kbps<br>Length &nbsp; &nbsp; &nbsp; &nbsp; &nbsp; &nbsp;: 2.22 GiB for 2h 16mn 17s 960ms<br><br>Video #0 &nbsp; &nbsp; &nbsp; &nbsp; &nbsp;: AVC at 1 828 Kbps<br>Aspect &nbsp; &nbsp; &nbsp; &nbsp; &nbsp; &nbsp;: 1920 x 796 (2.412) at 23.976 fps<br><br>Audio #0 &nbsp; &nbsp; &nbsp; &nbsp; &nbsp;: AAC at 384 Kbps<br>Infos &nbsp; &nbsp; &nbsp; &nbsp; &nbsp; &nbsp; : 6 channels, 48.0 KHz<br>Language &nbsp; &nbsp; &nbsp; &nbsp; &nbsp;: en<br><br>Audio #1 &nbsp; &nbsp; &nbsp; &nbsp; &nbsp;: AAC at 124 Kbps<br>Infos &nbsp; &nbsp; &nbsp; &nbsp; &nbsp; &nbsp; : 2 channels, 48.0 KHz<br>Language &nbsp; &nbsp; &nbsp; &nbsp; &nbsp;: en<br>-------------------------------------------------------------------------------<br> <br> &nbsp; &nbsp; &nbsp; &nbsp; Sub in a .srt file it can turns off/on<br> &nbsp;<br>The.Matrix.1999.Bluray.1080p.BluRay.x264.anoXmous_eng.srt<br>The.Matrix.1999.Bluray.1080p.BluRay.x264.anoXmous_swe.srt<br><br>-------------------------------------------------------------------------------<br> &nbsp; &nbsp; &nbsp; &nbsp; &nbsp; &nbsp; &nbsp;| Action | Adventure | Sci-Fi &nbsp;| &nbsp;<br> <br> &nbsp; &nbsp; &nbsp; &nbsp; &nbsp; &nbsp; &nbsp;Ratings: 8.7/10 from 658,197 users &nbsp; &nbsp; &nbsp; &nbsp; &nbsp;<br> &nbsp; <br> &nbsp; &nbsp; &nbsp; &nbsp; &nbsp; &nbsp;http://www.imdb.com/title/tt0133093/<br><br>===============================================================================<br><br>Neo and the rebel leaders estimate that they have 72 hours until 250,000 <br>probes discover Zion and destroy it and its inhabitants. During this, Neo must <br>decide how he can save Trinity from a dark fate in his dreams. <br><br>General &nbsp; &nbsp; &nbsp; &nbsp; &nbsp; : The.Matrix.Reloaded.2003.1080p.BluRay.x264.anoXmous_.mp4<br>Format &nbsp; &nbsp; &nbsp; &nbsp; &nbsp; &nbsp;: MPEG-4 at 2 334 Kbps<br>Length &nbsp; &nbsp; &nbsp; &nbsp; &nbsp; &nbsp;: 2.25 GiB for 2h 18mn 15s 552ms<br><br>Video #0 &nbsp; &nbsp; &nbsp; &nbsp; &nbsp;: AVC at 1 827 Kbps<br>Aspect &nbsp; &nbsp; &nbsp; &nbsp; &nbsp; &nbsp;: 1920 x 796 (2.412) at 23.976 fps<br><br>Audio #0 &nbsp; &nbsp; &nbsp; &nbsp; &nbsp;: AAC at 384 Kbps<br>Infos &nbsp; &nbsp; &nbsp; &nbsp; &nbsp; &nbsp; : 6 channels, 48.0 KHz<br>Language &nbsp; &nbsp; &nbsp; &nbsp; &nbsp;: en<br><br>Audio #1 &nbsp; &nbsp; &nbsp; &nbsp; &nbsp;: AAC at 124 Kbps<br>Infos &nbsp; &nbsp; &nbsp; &nbsp; &nbsp; &nbsp; : 2 channels, 48.0 KHz<br>Language &nbsp; &nbsp; &nbsp; &nbsp; &nbsp;: en<br>-------------------------------------------------------------------------------<br> <br> &nbsp; &nbsp; &nbsp; &nbsp; Sub in a .srt file it can turns off/on<br> &nbsp;<br>The.Matrix.Reloaded.2003.1080p.BluRay.x264.anoXmous_eng.srt<br>The.Matrix.Reloaded.2003.1080p.BluRay.x264.anoXmous_swe.srt<br><br>-------------------------------------------------------------------------------<br> &nbsp; &nbsp; &nbsp; &nbsp; &nbsp; &nbsp; &nbsp; &nbsp; &nbsp; | Action | Sci-Fi &nbsp; | &nbsp;<br> <br> &nbsp; &nbsp; &nbsp; &nbsp; &nbsp; &nbsp; &nbsp;Ratings: 7.1/10 from 264,786 users &nbsp; &nbsp; &nbsp; &nbsp; &nbsp;<br> &nbsp; <br> &nbsp; &nbsp; &nbsp; &nbsp; &nbsp; &nbsp;http://www.imdb.com/title/tt0234215/<br> <br>===============================================================================<br><br>The human city of Zion defends itself against the massive invasion of the <br>machines as Neo fights to end the war at another front while also opposing <br>the rogue Agent Smith. <br><br>General &nbsp; &nbsp; &nbsp; &nbsp; &nbsp; : The.Matrix.Revolutions.2003.1080p.BluRay.x264.anoXmous_.mp4<br>Format &nbsp; &nbsp; &nbsp; &nbsp; &nbsp; &nbsp;: MPEG-4 at 2 334 Kbps<br>Length &nbsp; &nbsp; &nbsp; &nbsp; &nbsp; &nbsp;: 2.11 GiB for 2h 9mn 16s 10ms<br><br>Video #0 &nbsp; &nbsp; &nbsp; &nbsp; &nbsp;: AVC at 1 828 Kbps<br>Aspect &nbsp; &nbsp; &nbsp; &nbsp; &nbsp; &nbsp;: 1920 x 796 (2.412) at 23.976 fps<br><br>Audio #0 &nbsp; &nbsp; &nbsp; &nbsp; &nbsp;: AAC at 384 Kbps<br>Infos &nbsp; &nbsp; &nbsp; &nbsp; &nbsp; &nbsp; : 6 channels, 48.0 KHz<br>Language &nbsp; &nbsp; &nbsp; &nbsp; &nbsp;: en<br><br>Audio #1 &nbsp; &nbsp; &nbsp; &nbsp; &nbsp;: AAC at 124 Kbps<br>Infos &nbsp; &nbsp; &nbsp; &nbsp; &nbsp; &nbsp; : 2 channels, 48.0 KHz<br>Language &nbsp; &nbsp; &nbsp; &nbsp; &nbsp;: en<br>-------------------------------------------------------------------------------<br> <br> &nbsp; &nbsp; &nbsp; &nbsp; Sub in a .srt file it can turns off/on<br> &nbsp;<br>The.Matrix.Revolutions.2003.1080p.BluRay.x264.anoXmous_eng.srt<br>The.Matrix.Revolutions.2003.1080p.BluRay.x264.anoXmous_swe.srt<br><br>-------------------------------------------------------------------------------<br> &nbsp; &nbsp; &nbsp; &nbsp; &nbsp; &nbsp; &nbsp;| Action | Adventure | Sci-Fi &nbsp; | &nbsp;<br> <br> &nbsp; &nbsp; &nbsp; &nbsp; &nbsp; &nbsp; &nbsp;Ratings: 6.6/10 from 226,938 users &nbsp; &nbsp; &nbsp; &nbsp; &nbsp;<br> &nbsp; <br> &nbsp; &nbsp; &nbsp; &nbsp; &nbsp; &nbsp;http://www.imdb.com/title/tt0242653/<br> <br>===============================================================================<br><br><img src="/images/profile-load.svg" data-original="https://i.ibb.co/ZYLrc77/the-matrix-collection-ghe-TTo.png" class="img-responsive descrimg lazy"></p><p> <br></p>]]></content>
		</entry>
		<entry>
			<title>The.Matrix.Resurrections.2021.720p.10bit.WEBRip.6CH.x265.HEVC-PSA</title>
			<link rel="alternate" type="text/html" href="http://1337x.to/torrent/5093116/The-Matrix-Resurrections-2021-720p-10bit-WEBRip-6CH-x265-HEVC-PSA/"/>
			<id>http://1337x.to/torrent/5093116/The-Matrix-Resurrections-2021-720p-10bit-WEBRip-6CH-x265-HEVC-PSA/</id>
			<published>2021-12-21T23:00:00.000Z</published>
			<updated>2021-12-21T23:00:00.000Z</updated>
			<category term="Movies"/>
			<content type="html"><![CDATA[<p><img src="/images/profile-load.svg" data-original="https://psa.pm/wp-content/uploads/2021/12/mtrix4.jpg" class="img-responsive descrimg lazy"> <br><br></p><div class="torrent-work"><div class="torrent-work-heading"><h2>Quote:</h2></div><div class="torrent-work-detail no-top-radius"><span class="icon-left"><i class="flaticon-quote-right"></i></span>General<br>File size : 1.09 GB<br>Duration : 2h 27mn 54sc<br>IMDB : https://www.imdb.com/title/tt10838180/<br>Source : The.Matrix.Resurrections.2021.1080p.WEB.H264-NAISU | 9.35 GB<br><br>Video<br>Format : HEVC<br>Format/Info : High Efficiency Video Coding<br>Width : 1 280 pixels<br>Height : 536 pixels<br>Display aspect ratio : 2.40:1<br>Frame rate mode : Constant<br>Frame rate : 23.976 (24000/1001) FPS<br>Color space : YUV<br>Chroma subsampling : 4:2:0<br>Bit depth : 10 bits<br>Default : Yes<br>Forced : No<br><br>Audio<br>Format : AAC<br>Format/Info : HE-AAC<br>Channel(s) : 6 Channels<br>Language : English<br>Default : Yes<br>Forced : No<br><br>Text<br>Format : UTF-8<br>Language : English<br>Default : Yes<br>Forced : No<br><br>Text<br>Format : UTF-8<br>Language : Spanish<br>Default : No<br>Forced : No<span class="icon-right"><i class="flaticon-quote-left"></i></span></div></div><p> <br><br><img src="/images/profile-load.svg" data-original="https://everest.picturedent.org/images/2021/12/22/Harone4697.jpg" class="img-responsive descrimg lazy"></p>]]></content>
		</entry>
		<entry>
			<title>A.Glitch.in.the.Matrix.2021.720p.WEBRip.800MB.x264-GalaxyRG </title>
			<link rel="alternate" type="text/html" href="http://1337x.to/torrent/4765280/A-Glitch-in-the-Matrix-2021-720p-WEBRip-800MB-x264-GalaxyRG/"/>
			<id>http://1337x.to/torrent/4765280/A-Glitch-in-the-Matrix-2021-720p-WEBRip-800MB-x264-GalaxyRG/</id>
			<published>2021-12-21T23:00:00.000Z</published>
			<updated>2021-12-21T23:00:00.000Z</updated>
			<category term="Movies"/>
			<content type="html"><![CDATA[<p></p><p class="align-center"><br> <strong>A.Glitch.in.the.Matrix.2021.720p.WEBRip.800MB.x264-GalaxyRG[TGx] </strong><br> IMDB - <a target="_blank" href="https://www.imdb.com/title/tt9847360">https://www.imdb.com/title/tt9847360</a><br> <br> Upload provided by TorrentGalaxy<br> Visit us @ <a target="_blank" href="https://torrentgalaxy.to">https://torrentgalaxy.to</a><br> <br> -----------------------------------------------------------------------------------<br> <br> <strong>GENERAL INFO </strong><br> <strong>Genre </strong>: Documentary, Science Fiction, Horror<br> <strong>Director </strong>: Rodney Ascher<br> <strong>Stars </strong>: <br> <strong>Plot </strong>: Are we in fact living in a simulation? This is the question postulated, wrestled with, and ultimately argued for through archival footage, compelling interviews with real people shrouded in digital avatars, and a collection of cases from some of our most iconoclastic figures in contemporary culture.<br> <br><strong>Included subtitles </strong><br>English<br> <br> -----------------------------------------------------------------------------------<br> <br> <strong>COVER </strong><br> <a target="_blank" href="https://imgmak.com/image/pweg"><img src="/images/profile-load.svg" data-original="https://imgmak.com/images/2021/02/06/tmpposter10682.jpg" class="img-responsive descrimg lazy"></a><br> <br> -----------------------------------------------------------------------------------<br> <br> <strong>SCREENSHOTS </strong><br> (Click to enlarge)<br> <a target="_blank" href="https://imgmak.com/image/pweo"><img src="/images/profile-load.svg" data-original="https://imgmak.com/images/2021/02/06/Harone15542.th.jpg" class="img-responsive descrimg lazy"></a> <a target="_blank" href="https://imgmak.com/image/pweN"><img src="/images/profile-load.svg" data-original="https://imgmak.com/images/2021/02/06/Harone5015.th.jpg" class="img-responsive descrimg lazy"></a> <a target="_blank" href="https://imgmak.com/image/pweQ"><img src="/images/profile-load.svg" data-original="https://imgmak.com/images/2021/02/06/Harone22863.th.jpg" class="img-responsive descrimg lazy"></a> <a target="_blank" href="https://imgmak.com/image/pweS"><img src="/images/profile-load.svg" data-original="https://imgmak.com/images/2021/02/06/Harone17848.th.jpg" class="img-responsive descrimg lazy"></a> <a target="_blank" href="https://imgmak.com/image/pweZ"><img src="/images/profile-load.svg" data-original="https://imgmak.com/images/2021/02/06/Harone32229.th.jpg" class="img-responsive descrimg lazy"></a> <a target="_blank" href="https://imgmak.com/image/pwec"><img src="/images/profile-load.svg" data-original="https://imgmak.com/images/2021/02/06/Harone23808.th.jpg" class="img-responsive descrimg lazy"></a><br> <br> -----------------------------------------------------------------------------------<br> <br> <strong>MEDIAINFO </strong><br> Container = Matroska (mkv)<br> Duration = 01:48:32.053<br> Filesize = 798 MiB<br> Overall bitrate = 1 028 kb/s<br> ViDEO<br> Codec info = AVC <a href="/cdn-cgi/l/email-protection" class="__cf_email__" data-cfemail="8dc5e4eae5cdc1bea3bc">[email&nbsp;protected]</a> | V_MPEG4/ISO/AVC<br> Resolution = 1280x720<br> Display AR = 1.778 | 16:9<br> Bitrate = 7 809 kb/s<br> Framerate = VFR 23.976<br> Color space = YUV<br> Chroma subsampling = 4:2:0<br> Encoder = x264 - core 157<br> AUDiO<br> Codec info = AAC | A_AAC-2<br> Channels = 2<br> Bitrate = 640 kb/s<br> Samplerate = 48.0 kHz<br> Language = English<br> <br><strong>Included subtitles </strong><br>English<br><br> </p><p></p>]]></content>
		</entry>
		<entry>
			<title>The Matrix Resurrections (2021) [1080p Eng 5.1 Sub Ita Eng Spa][MirCrewRelease] byMe7alh</title>
			<link rel="alternate" type="text/html" href="http://1337x.to/torrent/5094120/The-Matrix-Resurrections-2021-1080p-Eng-5-1-Sub-Ita-Eng-Spa-MirCrewRelease-byMe7alh/"/>
			<id>http://1337x.to/torrent/5094120/The-Matrix-Resurrections-2021-1080p-Eng-5-1-Sub-Ita-Eng-Spa-MirCrewRelease-byMe7alh/</id>
			<published>2021-12-21T23:00:00.000Z</published>
			<updated>2021-12-21T23:00:00.000Z</updated>
			<category term="Movies"/>
			<content type="html"><![CDATA[<p><img src="/images/profile-load.svg" data-original="https://i.imgur.com/B28xgnw.jpg" class="img-responsive descrimg lazy"> <br><img src="/images/profile-load.svg" data-original="https://i.imgur.com/nnXxPWj.jpg" class="img-responsive descrimg lazy"> <br><br><br><strong>AVINAPTIC </strong> <br>[spoiler]<span style="color:#38b60f;"></span></p><p><span class="underline"><strong>[ Info sul file ] </strong></span></p><p> <br><span style="color:#1c4a24;"><strong>Nome </strong></span>: <span style="color:#2528eb;">The.Matrix.Resurrections.2021.Eng.5.1.1080p.h264.Sub.Ita.Eng.Spa-Me7alh.mkv</span> <br><span style="color:#1c4a24;"><strong>Data </strong></span>: <span style="color:#2528eb;">Thu, 23 Dec 2021 10:59:48 +0100</span> <br><span style="color:#1c4a24;"><strong>Dimensione </strong></span>: <span style="color:#2528eb;">9,677,431,900 bytes (9229.118252 MiB)</span> <br><br><span style="color:#38b60f;"></span></p><p><span class="underline"><strong>[ Magic ] </strong></span></p><p> <br><span style="color:#1c4a24;"><strong>Tipo file </strong></span>: <span style="color:#2528eb;">data</span> <br><br><span style="color:#38b60f;"></span></p><p><span class="underline"><strong>[ Info generiche ] </strong></span></p><p> <br><span style="color:#1c4a24;"><strong>Durata </strong></span>: <span style="color:#2528eb;">02:27:55 (8874.88 s)</span> <br><span style="color:#1c4a24;"><strong>Contenitore </strong></span>: <span style="color:#2528eb;">matroska</span> <br><span style="color:#1c4a24;"><strong>Production date </strong></span>: <span style="color:#2528eb;">Thu, 23 Dec 2021 10:56:34 +0100</span> <br><span style="color:#1c4a24;"><strong>Totale tracce </strong></span>: <span style="color:#2528eb;">5</span> <br><span style="color:#1c4a24;"><strong>Traccia n. 1 </strong></span>: <span style="color:#2528eb;">video (V_MPEG4/ISO/AVC) {und}</span> <br><span style="color:#1c4a24;"><strong>Traccia n. 2 </strong></span>: <span style="color:#2528eb;">audio (A_AC3) {eng}</span> <br><span style="color:#1c4a24;"><strong>Traccia n. 3 </strong></span>: <span style="color:#2528eb;">subtitle (S_TEXT/UTF8) {ita}</span> <br><span style="color:#1c4a24;"><strong>Traccia n. 4 </strong></span>: <span style="color:#2528eb;">subtitle (S_TEXT/UTF8) {eng}</span> <br><span style="color:#1c4a24;"><strong>Traccia n. 5 </strong></span>: <span style="color:#2528eb;">subtitle (S_TEXT/UTF8) {spa}</span> <br><span style="color:#1c4a24;"><strong>Muxing library </strong></span>: <span style="color:#2528eb;">libebml v1.3.6 + libmatroska v1.4.9</span> <br><span style="color:#1c4a24;"><strong>Writing application </strong></span>: <span style="color:#2528eb;">mkvmerge v28.2.0 ('The Awakening') 32-bit</span> <br><br><span style="color:#38b60f;"></span></p><p><span class="underline"><strong>[ Dati rilevanti ] </strong></span></p><p> <br><span style="color:#1c4a24;"><strong>Risoluzione </strong></span>: <span style="color:#2528eb;">1920 x 816</span> <br><span style="color:#1c4a24;"><strong>Larghezza </strong></span>: <span style="color:#2528eb;">multipla di 32</span> <br><span style="color:#1c4a24;"><strong>Altezza </strong></span>: <span style="color:#2528eb;">multipla di 16</span> <br><span style="color:#1c4a24;"><strong>DRF medio </strong></span>: <span style="color:#2528eb;">16.854731</span> <br><span style="color:#1c4a24;"><strong>Deviazione standard </strong></span>: <span style="color:#2528eb;">4.830812</span> <br><span style="color:#1c4a24;"><strong>Media pesata dev. std. </strong></span>: <span style="color:#2528eb;">4.80817</span> <br><br><span style="color:#38b60f;"></span></p><p><span class="underline"><strong>[ Traccia video ] </strong></span></p><p> <br><span style="color:#1c4a24;"><strong>Codec ID </strong></span>: <span style="color:#2528eb;">V_MPEG4/ISO/AVC</span> <br><span style="color:#1c4a24;"><strong>Risoluzione </strong></span>: <span style="color:#2528eb;">1920 x 816</span> <br><span style="color:#1c4a24;"><strong>Frame aspect ratio </strong></span>: <span style="color:#2528eb;">40:17 = 2.352941 (~2.35:1)</span> <br><span style="color:#1c4a24;"><strong>Pixel aspect ratio </strong></span>: <span style="color:#2528eb;">1:1 = 1</span> <br><span style="color:#1c4a24;"><strong>Display aspect ratio </strong></span>: <span style="color:#2528eb;">40:17 = 2.352941 (~2.35:1)</span> <br><span style="color:#1c4a24;"><strong>Framerate </strong></span>: <span style="color:#2528eb;">23.976024 fps</span> <br><span style="color:#1c4a24;"><strong>Dimensione stream </strong></span>: <span style="color:#2528eb;">9,106,917,562 bytes (8685.033381 MiB)</span> <br><span style="color:#1c4a24;"><strong>Durata </strong></span>: <span style="color:#2528eb;">02:27:55 (8874.865929 s)</span> <br><span style="color:#1c4a24;"><strong>Bitrate (bs) </strong></span>: <span style="color:#2528eb;">8209.176463 kbps</span> <br><span style="color:#1c4a24;"><strong>Qf </strong></span>: <span style="color:#2528eb;">0.21854</span> <br><br><span style="color:#38b60f;"></span></p><p><span class="underline"><strong>[ Traccia audio ] </strong></span></p><p> <br><span style="color:#1c4a24;"><strong>Codec ID </strong></span>: <span style="color:#2528eb;">A_AC3</span> <br><span style="color:#1c4a24;"><strong>Freq. campionamento </strong></span>: <span style="color:#2528eb;">48000 Hz</span> <br><span style="color:#1c4a24;"><strong>Canali </strong></span>: <span style="color:#2528eb;">6</span> <br><span style="color:#1c4a24;"><strong>Dimensione stream </strong></span>: <span style="color:#2528eb;">567,992,320 bytes (541.679688 MiB)</span> <br><span style="color:#1c4a24;"><strong>Tipo di bitstream (bs) </strong></span>: <span style="color:#2528eb;">AC3</span> <br><span style="color:#1c4a24;"><strong>Frames (bs) </strong></span>: <span style="color:#2528eb;">277,340</span> <br><span style="color:#1c4a24;"><strong>Durata </strong></span>: <span style="color:#2528eb;">02:27:55 (8874.88 s)</span> <br><span style="color:#1c4a24;"><strong>Chunk-aligned (bs) </strong></span>: <span style="color:#2528eb;">S</span> <br><span style="color:#1c4a24;"><strong>Bitrate (bs) </strong></span>: <span style="color:#2528eb;">512 kbps CBR</span> <br><span style="color:#1c4a24;"><strong>Freq. campionamento (bs) </strong></span>: <span style="color:#2528eb;">48000 Hz</span> <br><span style="color:#1c4a24;"><strong>Modo (bs) </strong></span>: <span style="color:#2528eb;">3 front, 2 rear, 1 LFE</span> <br><br><span style="color:#38b60f;"></span></p><p><span class="underline"><strong>[ Bitstream video ] </strong></span></p><p> <br><span style="color:#1c4a24;"><strong>Tipo di bitstream </strong></span>: <span style="color:#2528eb;">MPEG-4 Part 10</span> <br><span style="color:#1c4a24;"><strong>User data </strong></span>: <span style="color:#2528eb;">x264 | core 157 r2965 861cec4 | H.264/MPEG-4 AVC codec</span> <br><span style="color:#1c4a24;"><strong>User data </strong></span>: <span style="color:#2528eb;">Copyleft 2003-2018 | http://www.videolan.org/x264.html | cabac=1</span> <br><span style="color:#1c4a24;"><strong>User data </strong></span>: <span style="color:#2528eb;">ref=4 | deblock=1:0:0 | analyse=0x3:0x113 | me=hex | subme=7 | psy=1</span> <br><span style="color:#1c4a24;"><strong>User data </strong></span>: <span style="color:#2528eb;">psy_rd=1.00:0.00 | mixed_ref=1 | me_range=16 | chroma_me=1</span> <br><span style="color:#1c4a24;"><strong>User data </strong></span>: <span style="color:#2528eb;">trellis=1 | 8x8dct=1 | cqm=0 | deadzone=21,11 | fast_pskip=1</span> <br><span style="color:#1c4a24;"><strong>User data </strong></span>: <span style="color:#2528eb;">chroma_qp_offset=-2 | threads=25 | lookahead_threads=4</span> <br><span style="color:#1c4a24;"><strong>User data </strong></span>: <span style="color:#2528eb;">sliced_threads=0 | nr=0 | decimate=1 | interlaced=0</span> <br><span style="color:#1c4a24;"><strong>User data </strong></span>: <span style="color:#2528eb;">bluray_compat=0 | constrained_intra=0 | bframes=3 | b_pyramid=2</span> <br><span style="color:#1c4a24;"><strong>User data </strong></span>: <span style="color:#2528eb;">b_adapt=1 | b_bias=0 | direct=1 | weightb=1 | open_gop=0 | weightp=2</span> <br><span style="color:#1c4a24;"><strong>User data </strong></span>: <span style="color:#2528eb;">keyint=96 | keyint_min=96 | scenecut=40 | intra_refresh=0</span> <br><span style="color:#1c4a24;"><strong>User data </strong></span>: <span style="color:#2528eb;">rc_lookahead=40 | rc=2pass | mbtree=1 | bitrate=8250 | ratetol=1.0</span> <br><span style="color:#1c4a24;"><strong>User data </strong></span>: <span style="color:#2528eb;">qcomp=0.60 | qpmin=0 | qpmax=69 | qpstep=4 | cplxblur=20.0</span> <br><span style="color:#1c4a24;"><strong>User data </strong></span>: <span style="color:#2528eb;">qblur=0.5 | vbv_maxrate=12375 | vbv_bufsize=6187 | nal_hrd=vbr</span> <br><span style="color:#1c4a24;"><strong>User data </strong></span>: <span style="color:#2528eb;">filler=0 | ip_ratio=1.40 | aq=1:1.00</span> <br><span style="color:#1c4a24;"><strong>SPS id </strong></span>: <span style="color:#2528eb;">0</span> <br><span style="color:#1c4a24;"><strong>&nbsp;Profile </strong></span>: <span style="color:#2528eb;"><a href="/cdn-cgi/l/email-protection" class="__cf_email__" data-cfemail="6e260709062e225a">[email&nbsp;protected]</a></span> <br><span style="color:#1c4a24;"><strong>&nbsp;Num ref frames </strong></span>: <span style="color:#2528eb;">4</span> <br><span style="color:#1c4a24;"><strong>&nbsp;Aspect ratio </strong></span>: <span style="color:#2528eb;">Square pixels</span> <br><span style="color:#1c4a24;"><strong>&nbsp;Chroma format </strong></span>: <span style="color:#2528eb;">YUV 4:2:0</span> <br><span style="color:#1c4a24;"><strong>PPS id </strong></span>: <span style="color:#2528eb;">0 (SPS: 0)</span> <br><span style="color:#1c4a24;"><strong>&nbsp;Tipo di codifica entropica </strong></span>: <span style="color:#2528eb;">CABAC</span> <br><span style="color:#1c4a24;"><strong>&nbsp;Weighted prediction </strong></span>: <span style="color:#2528eb;">P slices - explicit weighted prediction</span> <br><span style="color:#1c4a24;"><strong>&nbsp;Weighted bipred idc </strong></span>: <span style="color:#2528eb;">B slices - implicit weighted prediction</span> <br><span style="color:#1c4a24;"><strong>&nbsp;8x8dct </strong></span>: <span style="color:#2528eb;">S</span> <br><span style="color:#1c4a24;"><strong>Totale frames </strong></span>: <span style="color:#2528eb;">212,784</span> <br><span style="color:#1c4a24;"><strong>Drop/delay frames </strong></span>: <span style="color:#2528eb;">0</span> <br><span style="color:#1c4a24;"><strong>Frames corrotti </strong></span>: <span style="color:#2528eb;">0</span> <br><br><span style="color:#1c4a24;"><strong>P-slices </strong></span>: <span style="color:#2528eb;">62516 ( 29.380 %) ######</span> <br><span style="color:#1c4a24;"><strong>B-slices </strong></span>: <span style="color:#2528eb;">143939 ( 67.646 %) ##############</span> <br><span style="color:#1c4a24;"><strong>I-slices </strong></span>: <span style="color:#2528eb;">&nbsp;6329 ( &nbsp;2.974 %) #</span> <br><span style="color:#1c4a24;"><strong>SP-slices </strong></span>: <span style="color:#2528eb;">&nbsp; &nbsp; 0 ( &nbsp;0.000 %)</span> <br><span style="color:#1c4a24;"><strong>SI-slices </strong></span>: <span style="color:#2528eb;">&nbsp; &nbsp; 0 ( &nbsp;0.000 %)</span> <br><br><span style="color:#38b60f;"></span></p><p><span class="underline"><strong>[ Analisi DRF ] </strong></span></p><p> <br><span style="color:#1c4a24;"><strong>DRF nedio </strong></span>: <span style="color:#2528eb;">16.854731</span> <br><span style="color:#1c4a24;"><strong>deviazione standard </strong></span>: <span style="color:#2528eb;">4.830812</span> <br><span style="color:#1c4a24;"><strong>max DRF </strong></span>: <span style="color:#2528eb;">41</span> <br><br><span style="color:#1c4a24;"><strong>DRF=1 </strong></span>: <span style="color:#2528eb;">&nbsp; 12 ( &nbsp;0.006 %)</span> <br><span style="color:#1c4a24;"><strong>DRF=2 </strong></span>: <span style="color:#2528eb;">&nbsp;211 ( &nbsp;0.099 %)</span> <br><span style="color:#1c4a24;"><strong>DRF=3 </strong></span>: <span style="color:#2528eb;">&nbsp;558 ( &nbsp;0.262 %)</span> <br><span style="color:#1c4a24;"><strong>DRF=4 </strong></span>: <span style="color:#2528eb;">&nbsp;420 ( &nbsp;0.197 %)</span> <br><span style="color:#1c4a24;"><strong>DRF=5 </strong></span>: <span style="color:#2528eb;">&nbsp;662 ( &nbsp;0.311 %)</span> <br><span style="color:#1c4a24;"><strong>DRF=6 </strong></span>: <span style="color:#2528eb;">5807 ( &nbsp;2.729 %) #</span> <br><span style="color:#1c4a24;"><strong>DRF=7 </strong></span>: <span style="color:#2528eb;">7133 ( &nbsp;3.352 %) #</span> <br><span style="color:#1c4a24;"><strong>DRF=8 </strong></span>: <span style="color:#2528eb;">1171 ( &nbsp;0.550 %)</span> <br><span style="color:#1c4a24;"><strong>DRF=9 </strong></span>: <span style="color:#2528eb;">1042 ( &nbsp;0.490 %)</span> <br><span style="color:#1c4a24;"><strong>DRF=10 </strong></span>: <span style="color:#2528eb;">3257 ( &nbsp;1.531 %)</span> <br><span style="color:#1c4a24;"><strong>DRF=11 </strong></span>: <span style="color:#2528eb;">3423 ( &nbsp;1.609 %)</span> <br><span style="color:#1c4a24;"><strong>DRF=12 </strong></span>: <span style="color:#2528eb;">7992 ( &nbsp;3.756 %) #</span> <br><span style="color:#1c4a24;"><strong>DRF=13 </strong></span>: <span style="color:#2528eb;">12012 ( &nbsp;5.645 %) #</span> <br><span style="color:#1c4a24;"><strong>DRF=14 </strong></span>: <span style="color:#2528eb;">16503 ( &nbsp;7.756 %) ##</span> <br><span style="color:#1c4a24;"><strong>DRF=15 </strong></span>: <span style="color:#2528eb;">17151 ( &nbsp;8.060 %) ##</span> <br><span style="color:#1c4a24;"><strong>DRF=16 </strong></span>: <span style="color:#2528eb;">20705 ( &nbsp;9.731 %) ##</span> <br><span style="color:#1c4a24;"><strong>DRF=17 </strong></span>: <span style="color:#2528eb;">18585 ( &nbsp;8.734 %) ##</span> <br><span style="color:#1c4a24;"><strong>DRF=18 </strong></span>: <span style="color:#2528eb;">17607 ( &nbsp;8.275 %) ##</span> <br><span style="color:#1c4a24;"><strong>DRF=19 </strong></span>: <span style="color:#2528eb;">16263 ( &nbsp;7.643 %) ##</span> <br><span style="color:#1c4a24;"><strong>DRF=20 </strong></span>: <span style="color:#2528eb;">13446 ( &nbsp;6.319 %) #</span> <br><span style="color:#1c4a24;"><strong>DRF=21 </strong></span>: <span style="color:#2528eb;">12658 ( &nbsp;5.949 %) #</span> <br><span style="color:#1c4a24;"><strong>DRF=22 </strong></span>: <span style="color:#2528eb;">10383 ( &nbsp;4.880 %) #</span> <br><span style="color:#1c4a24;"><strong>DRF=23 </strong></span>: <span style="color:#2528eb;">9055 ( &nbsp;4.255 %) #</span> <br><span style="color:#1c4a24;"><strong>DRF=24 </strong></span>: <span style="color:#2528eb;">6452 ( &nbsp;3.032 %) #</span> <br><span style="color:#1c4a24;"><strong>DRF=25 </strong></span>: <span style="color:#2528eb;">5757 ( &nbsp;2.706 %) #</span> <br><span style="color:#1c4a24;"><strong>DRF=26 </strong></span>: <span style="color:#2528eb;">2974 ( &nbsp;1.398 %)</span> <br><span style="color:#1c4a24;"><strong>DRF=27 </strong></span>: <span style="color:#2528eb;">&nbsp;479 ( &nbsp;0.225 %)</span> <br><span style="color:#1c4a24;"><strong>DRF=28 </strong></span>: <span style="color:#2528eb;">&nbsp;346 ( &nbsp;0.163 %)</span> <br><span style="color:#1c4a24;"><strong>DRF=29 </strong></span>: <span style="color:#2528eb;">&nbsp;194 ( &nbsp;0.091 %)</span> <br><span style="color:#1c4a24;"><strong>DRF=30 </strong></span>: <span style="color:#2528eb;">&nbsp;189 ( &nbsp;0.089 %)</span> <br><span style="color:#1c4a24;"><strong>DRF=31 </strong></span>: <span style="color:#2528eb;">&nbsp;113 ( &nbsp;0.053 %)</span> <br><span style="color:#1c4a24;"><strong>DRF=32 </strong></span>: <span style="color:#2528eb;">&nbsp; 68 ( &nbsp;0.032 %)</span> <br><span style="color:#1c4a24;"><strong>DRF=33 </strong></span>: <span style="color:#2528eb;">&nbsp; 41 ( &nbsp;0.019 %)</span> <br><span style="color:#1c4a24;"><strong>DRF=34 </strong></span>: <span style="color:#2528eb;">&nbsp; 36 ( &nbsp;0.017 %)</span> <br><span style="color:#1c4a24;"><strong>DRF=35 </strong></span>: <span style="color:#2528eb;">&nbsp; 27 ( &nbsp;0.013 %)</span> <br><span style="color:#1c4a24;"><strong>DRF=36 </strong></span>: <span style="color:#2528eb;">&nbsp; 21 ( &nbsp;0.010 %)</span> <br><span style="color:#1c4a24;"><strong>DRF=37 </strong></span>: <span style="color:#2528eb;">&nbsp; &nbsp;3 ( &nbsp;0.001 %)</span> <br><span style="color:#1c4a24;"><strong>DRF=38 </strong></span>: <span style="color:#2528eb;">&nbsp; &nbsp;2 ( &nbsp;0.001 %)</span> <br><span style="color:#1c4a24;"><strong>DRF=39 </strong></span>: <span style="color:#2528eb;">&nbsp; &nbsp;6 ( &nbsp;0.003 %)</span> <br><span style="color:#1c4a24;"><strong>DRF&gt;39 </strong></span>: <span style="color:#2528eb;">&nbsp; &nbsp;6 ( &nbsp;0.003 %)</span> <br><br><span style="color:#1c4a24;"><strong>P-slices DRF medio </strong></span>: <span style="color:#2528eb;">16.405336</span> <br><span style="color:#1c4a24;"><strong>P-slices deviazione std. </strong></span>: <span style="color:#2528eb;">4.889261</span> <br><span style="color:#1c4a24;"><strong>P-slices max DRF </strong></span>: <span style="color:#2528eb;">41</span> <br><br><span style="color:#1c4a24;"><strong>B-slices DRF medio </strong></span>: <span style="color:#2528eb;">17.131465</span> <br><span style="color:#1c4a24;"><strong>B-slices deviazione std. </strong></span>: <span style="color:#2528eb;">4.785755</span> <br><span style="color:#1c4a24;"><strong>B-slices max DRF </strong></span>: <span style="color:#2528eb;">40</span> <br><br><span style="color:#1c4a24;"><strong>I-slices DRF medio </strong></span>: <span style="color:#2528eb;">15</span> <br><span style="color:#1c4a24;"><strong>I-slices deviazione std. </strong></span>: <span style="color:#2528eb;">4.516958</span> <br><span style="color:#1c4a24;"><strong>I-slices max DRF </strong></span>: <span style="color:#2528eb;">34</span> <br><br><span style="color:#38b60f;"></span></p><p><span class="underline"><strong>[ Conformit al profilo ] </strong></span></p><p> <br><span style="color:#1c4a24;"><strong>Profilo selezionato </strong></span>: <span style="color:#2528eb;">MTK PAL 6000</span> <br><span style="color:#1c4a24;"><strong>Risoluzione </strong></span>: <span style="color:#2528eb;">1920 x 816 &gt; 720 x 576</span> <br><span style="color:#1c4a24;"><strong>Framerate </strong></span>: <span style="color:#2528eb;">23.976024 &lt;&gt; 25</span> <br><span style="color:#1c4a24;"><strong>Buffer underflow </strong></span>: <span style="color:#2528eb;">00:00:03 (frame 61)</span> <br><span style="color:#1c4a24;"><strong>Buffer underflow </strong></span>: <span style="color:#2528eb;">00:00:05 (frame 112)</span> <br><span style="color:#1c4a24;"><strong>Buffer underflow </strong></span>: <span style="color:#2528eb;">00:00:06 (frame 149)</span> <br><span style="color:#1c4a24;"><strong>Buffer underflow </strong></span>: <span style="color:#2528eb;">00:00:07 (frame 169)</span> <br><span style="color:#1c4a24;"><strong>Buffer underflow </strong></span>: <span style="color:#2528eb;">00:00:08 (frame 188)</span> <br><span style="color:#1c4a24;"><strong>Buffer underflow </strong></span>: <span style="color:#2528eb;">00:00:10 (frame 233)</span> <br><span style="color:#1c4a24;"><strong>Buffer underflow </strong></span>: <span style="color:#2528eb;">00:00:12 (frame 289)</span> <br><span style="color:#1c4a24;"><strong>Buffer underflow </strong></span>: <span style="color:#2528eb;">00:00:36 (frame 853)</span> <br><span style="color:#1c4a24;"><strong>Buffer underflow </strong></span>: <span style="color:#2528eb;">00:00:36 (frame 865)</span> <br><span style="color:#1c4a24;"><strong>Buffer underflow </strong></span>: <span style="color:#2528eb;">00:00:37 (frame 886)</span> <br><span style="color:#1c4a24;"><strong>Buffer underflow </strong></span>: <span style="color:#2528eb;">00:00:45 (frame 1074)</span> <br><span style="color:#1c4a24;"><strong>Buffer underflow </strong></span>: <span style="color:#2528eb;">00:00:45 (frame 1089)</span> <br><span style="color:#1c4a24;"><strong>Buffer underflow </strong></span>: <span style="color:#2528eb;">00:00:46 (frame 1109)</span> <br><span style="color:#1c4a24;"><strong>Buffer underflow </strong></span>: <span style="color:#2528eb;">00:00:48 (frame 1158)</span> <br><span style="color:#1c4a24;"><strong>Buffer underflow </strong></span>: <span style="color:#2528eb;">00:01:03 (frame 1514)</span> <br><span style="color:#1c4a24;"><strong>Buffer underflow </strong></span>: <span style="color:#2528eb;">00:01:04 (frame 1536)</span> <br><span style="color:#1c4a24;"><strong>Buffer underflow </strong></span>: <span style="color:#2528eb;">00:01:05 (frame 1559)</span> <br><span style="color:#1c4a24;"><strong>Buffer underflow </strong></span>: <span style="color:#2528eb;">00:01:06 (frame 1593)</span> <br><span style="color:#1c4a24;"><strong>Buffer underflow </strong></span>: <span style="color:#2528eb;">00:01:08 (frame 1622)</span> <br><span style="color:#1c4a24;"><strong>Buffer underflow </strong></span>: <span style="color:#2528eb;">00:01:09 (frame 1661)</span> <br><span style="color:#1c4a24;"><strong>Errore </strong></span>: <span style="color:#2528eb;">Troppe violazioni</span></p>]]></content>
		</entry>
</feed>
